%TF.GenerationSoftware,KiCad,Pcbnew,10.0.3*%
%TF.CreationDate,2026-06-16T14:38:08-05:00*%
%TF.ProjectId,Freezer_Monitor,46726565-7a65-4725-9f4d-6f6e69746f72,rev?*%
%TF.SameCoordinates,Original*%
%TF.FileFunction,Legend,Top*%
%TF.FilePolarity,Positive*%
%FSLAX46Y46*%
G04 Gerber Fmt 4.6, Leading zero omitted, Abs format (unit mm)*
G04 Created by KiCad (PCBNEW 10.0.3) date 2026-06-16 14:38:08*
%MOMM*%
%LPD*%
G01*
G04 APERTURE LIST*
%ADD10C,0.150000*%
%ADD11C,0.120000*%
%ADD12C,0.127000*%
G04 APERTURE END LIST*
D10*
X182304819Y-71863333D02*
X183019104Y-71863333D01*
X183019104Y-71863333D02*
X183161961Y-71910952D01*
X183161961Y-71910952D02*
X183257200Y-72006190D01*
X183257200Y-72006190D02*
X183304819Y-72149047D01*
X183304819Y-72149047D02*
X183304819Y-72244285D01*
X183304819Y-71387142D02*
X182304819Y-71387142D01*
X182304819Y-71387142D02*
X182304819Y-71006190D01*
X182304819Y-71006190D02*
X182352438Y-70910952D01*
X182352438Y-70910952D02*
X182400057Y-70863333D01*
X182400057Y-70863333D02*
X182495295Y-70815714D01*
X182495295Y-70815714D02*
X182638152Y-70815714D01*
X182638152Y-70815714D02*
X182733390Y-70863333D01*
X182733390Y-70863333D02*
X182781009Y-70910952D01*
X182781009Y-70910952D02*
X182828628Y-71006190D01*
X182828628Y-71006190D02*
X182828628Y-71387142D01*
X183304819Y-69863333D02*
X183304819Y-70434761D01*
X183304819Y-70149047D02*
X182304819Y-70149047D01*
X182304819Y-70149047D02*
X182447676Y-70244285D01*
X182447676Y-70244285D02*
X182542914Y-70339523D01*
X182542914Y-70339523D02*
X182590533Y-70434761D01*
X179166666Y-98404819D02*
X179166666Y-99119104D01*
X179166666Y-99119104D02*
X179119047Y-99261961D01*
X179119047Y-99261961D02*
X179023809Y-99357200D01*
X179023809Y-99357200D02*
X178880952Y-99404819D01*
X178880952Y-99404819D02*
X178785714Y-99404819D01*
X180166666Y-99404819D02*
X179595238Y-99404819D01*
X179880952Y-99404819D02*
X179880952Y-98404819D01*
X179880952Y-98404819D02*
X179785714Y-98547676D01*
X179785714Y-98547676D02*
X179690476Y-98642914D01*
X179690476Y-98642914D02*
X179595238Y-98690533D01*
X116333333Y-108454819D02*
X116000000Y-107978628D01*
X115761905Y-108454819D02*
X115761905Y-107454819D01*
X115761905Y-107454819D02*
X116142857Y-107454819D01*
X116142857Y-107454819D02*
X116238095Y-107502438D01*
X116238095Y-107502438D02*
X116285714Y-107550057D01*
X116285714Y-107550057D02*
X116333333Y-107645295D01*
X116333333Y-107645295D02*
X116333333Y-107788152D01*
X116333333Y-107788152D02*
X116285714Y-107883390D01*
X116285714Y-107883390D02*
X116238095Y-107931009D01*
X116238095Y-107931009D02*
X116142857Y-107978628D01*
X116142857Y-107978628D02*
X115761905Y-107978628D01*
X116714286Y-107550057D02*
X116761905Y-107502438D01*
X116761905Y-107502438D02*
X116857143Y-107454819D01*
X116857143Y-107454819D02*
X117095238Y-107454819D01*
X117095238Y-107454819D02*
X117190476Y-107502438D01*
X117190476Y-107502438D02*
X117238095Y-107550057D01*
X117238095Y-107550057D02*
X117285714Y-107645295D01*
X117285714Y-107645295D02*
X117285714Y-107740533D01*
X117285714Y-107740533D02*
X117238095Y-107883390D01*
X117238095Y-107883390D02*
X116666667Y-108454819D01*
X116666667Y-108454819D02*
X117285714Y-108454819D01*
X116333333Y-105454819D02*
X116000000Y-104978628D01*
X115761905Y-105454819D02*
X115761905Y-104454819D01*
X115761905Y-104454819D02*
X116142857Y-104454819D01*
X116142857Y-104454819D02*
X116238095Y-104502438D01*
X116238095Y-104502438D02*
X116285714Y-104550057D01*
X116285714Y-104550057D02*
X116333333Y-104645295D01*
X116333333Y-104645295D02*
X116333333Y-104788152D01*
X116333333Y-104788152D02*
X116285714Y-104883390D01*
X116285714Y-104883390D02*
X116238095Y-104931009D01*
X116238095Y-104931009D02*
X116142857Y-104978628D01*
X116142857Y-104978628D02*
X115761905Y-104978628D01*
X116666667Y-104454819D02*
X117285714Y-104454819D01*
X117285714Y-104454819D02*
X116952381Y-104835771D01*
X116952381Y-104835771D02*
X117095238Y-104835771D01*
X117095238Y-104835771D02*
X117190476Y-104883390D01*
X117190476Y-104883390D02*
X117238095Y-104931009D01*
X117238095Y-104931009D02*
X117285714Y-105026247D01*
X117285714Y-105026247D02*
X117285714Y-105264342D01*
X117285714Y-105264342D02*
X117238095Y-105359580D01*
X117238095Y-105359580D02*
X117190476Y-105407200D01*
X117190476Y-105407200D02*
X117095238Y-105454819D01*
X117095238Y-105454819D02*
X116809524Y-105454819D01*
X116809524Y-105454819D02*
X116714286Y-105407200D01*
X116714286Y-105407200D02*
X116666667Y-105359580D01*
X116333333Y-111454819D02*
X116000000Y-110978628D01*
X115761905Y-111454819D02*
X115761905Y-110454819D01*
X115761905Y-110454819D02*
X116142857Y-110454819D01*
X116142857Y-110454819D02*
X116238095Y-110502438D01*
X116238095Y-110502438D02*
X116285714Y-110550057D01*
X116285714Y-110550057D02*
X116333333Y-110645295D01*
X116333333Y-110645295D02*
X116333333Y-110788152D01*
X116333333Y-110788152D02*
X116285714Y-110883390D01*
X116285714Y-110883390D02*
X116238095Y-110931009D01*
X116238095Y-110931009D02*
X116142857Y-110978628D01*
X116142857Y-110978628D02*
X115761905Y-110978628D01*
X117285714Y-111454819D02*
X116714286Y-111454819D01*
X117000000Y-111454819D02*
X117000000Y-110454819D01*
X117000000Y-110454819D02*
X116904762Y-110597676D01*
X116904762Y-110597676D02*
X116809524Y-110692914D01*
X116809524Y-110692914D02*
X116714286Y-110740533D01*
X149383333Y-103179580D02*
X149335714Y-103227200D01*
X149335714Y-103227200D02*
X149192857Y-103274819D01*
X149192857Y-103274819D02*
X149097619Y-103274819D01*
X149097619Y-103274819D02*
X148954762Y-103227200D01*
X148954762Y-103227200D02*
X148859524Y-103131961D01*
X148859524Y-103131961D02*
X148811905Y-103036723D01*
X148811905Y-103036723D02*
X148764286Y-102846247D01*
X148764286Y-102846247D02*
X148764286Y-102703390D01*
X148764286Y-102703390D02*
X148811905Y-102512914D01*
X148811905Y-102512914D02*
X148859524Y-102417676D01*
X148859524Y-102417676D02*
X148954762Y-102322438D01*
X148954762Y-102322438D02*
X149097619Y-102274819D01*
X149097619Y-102274819D02*
X149192857Y-102274819D01*
X149192857Y-102274819D02*
X149335714Y-102322438D01*
X149335714Y-102322438D02*
X149383333Y-102370057D01*
X149764286Y-102370057D02*
X149811905Y-102322438D01*
X149811905Y-102322438D02*
X149907143Y-102274819D01*
X149907143Y-102274819D02*
X150145238Y-102274819D01*
X150145238Y-102274819D02*
X150240476Y-102322438D01*
X150240476Y-102322438D02*
X150288095Y-102370057D01*
X150288095Y-102370057D02*
X150335714Y-102465295D01*
X150335714Y-102465295D02*
X150335714Y-102560533D01*
X150335714Y-102560533D02*
X150288095Y-102703390D01*
X150288095Y-102703390D02*
X149716667Y-103274819D01*
X149716667Y-103274819D02*
X150335714Y-103274819D01*
X120430682Y-66109580D02*
X120383063Y-66157200D01*
X120383063Y-66157200D02*
X120240206Y-66204819D01*
X120240206Y-66204819D02*
X120144968Y-66204819D01*
X120144968Y-66204819D02*
X120002111Y-66157200D01*
X120002111Y-66157200D02*
X119906873Y-66061961D01*
X119906873Y-66061961D02*
X119859254Y-65966723D01*
X119859254Y-65966723D02*
X119811635Y-65776247D01*
X119811635Y-65776247D02*
X119811635Y-65633390D01*
X119811635Y-65633390D02*
X119859254Y-65442914D01*
X119859254Y-65442914D02*
X119906873Y-65347676D01*
X119906873Y-65347676D02*
X120002111Y-65252438D01*
X120002111Y-65252438D02*
X120144968Y-65204819D01*
X120144968Y-65204819D02*
X120240206Y-65204819D01*
X120240206Y-65204819D02*
X120383063Y-65252438D01*
X120383063Y-65252438D02*
X120430682Y-65300057D01*
X121383063Y-66204819D02*
X120811635Y-66204819D01*
X121097349Y-66204819D02*
X121097349Y-65204819D01*
X121097349Y-65204819D02*
X121002111Y-65347676D01*
X121002111Y-65347676D02*
X120906873Y-65442914D01*
X120906873Y-65442914D02*
X120811635Y-65490533D01*
X165166666Y-111454819D02*
X165166666Y-112169104D01*
X165166666Y-112169104D02*
X165119047Y-112311961D01*
X165119047Y-112311961D02*
X165023809Y-112407200D01*
X165023809Y-112407200D02*
X164880952Y-112454819D01*
X164880952Y-112454819D02*
X164785714Y-112454819D01*
X165595238Y-111550057D02*
X165642857Y-111502438D01*
X165642857Y-111502438D02*
X165738095Y-111454819D01*
X165738095Y-111454819D02*
X165976190Y-111454819D01*
X165976190Y-111454819D02*
X166071428Y-111502438D01*
X166071428Y-111502438D02*
X166119047Y-111550057D01*
X166119047Y-111550057D02*
X166166666Y-111645295D01*
X166166666Y-111645295D02*
X166166666Y-111740533D01*
X166166666Y-111740533D02*
X166119047Y-111883390D01*
X166119047Y-111883390D02*
X165547619Y-112454819D01*
X165547619Y-112454819D02*
X166166666Y-112454819D01*
X162684285Y-79821009D02*
X162827142Y-79868628D01*
X162827142Y-79868628D02*
X162874761Y-79916247D01*
X162874761Y-79916247D02*
X162922380Y-80011485D01*
X162922380Y-80011485D02*
X162922380Y-80154342D01*
X162922380Y-80154342D02*
X162874761Y-80249580D01*
X162874761Y-80249580D02*
X162827142Y-80297200D01*
X162827142Y-80297200D02*
X162731904Y-80344819D01*
X162731904Y-80344819D02*
X162350952Y-80344819D01*
X162350952Y-80344819D02*
X162350952Y-79344819D01*
X162350952Y-79344819D02*
X162684285Y-79344819D01*
X162684285Y-79344819D02*
X162779523Y-79392438D01*
X162779523Y-79392438D02*
X162827142Y-79440057D01*
X162827142Y-79440057D02*
X162874761Y-79535295D01*
X162874761Y-79535295D02*
X162874761Y-79630533D01*
X162874761Y-79630533D02*
X162827142Y-79725771D01*
X162827142Y-79725771D02*
X162779523Y-79773390D01*
X162779523Y-79773390D02*
X162684285Y-79821009D01*
X162684285Y-79821009D02*
X162350952Y-79821009D01*
X163208095Y-79344819D02*
X163779523Y-79344819D01*
X163493809Y-80344819D02*
X163493809Y-79344819D01*
X164636666Y-80344819D02*
X164065238Y-80344819D01*
X164350952Y-80344819D02*
X164350952Y-79344819D01*
X164350952Y-79344819D02*
X164255714Y-79487676D01*
X164255714Y-79487676D02*
X164160476Y-79582914D01*
X164160476Y-79582914D02*
X164065238Y-79630533D01*
X135933095Y-88619819D02*
X135933095Y-89429342D01*
X135933095Y-89429342D02*
X135980714Y-89524580D01*
X135980714Y-89524580D02*
X136028333Y-89572200D01*
X136028333Y-89572200D02*
X136123571Y-89619819D01*
X136123571Y-89619819D02*
X136314047Y-89619819D01*
X136314047Y-89619819D02*
X136409285Y-89572200D01*
X136409285Y-89572200D02*
X136456904Y-89524580D01*
X136456904Y-89524580D02*
X136504523Y-89429342D01*
X136504523Y-89429342D02*
X136504523Y-88619819D01*
X137504523Y-89619819D02*
X136933095Y-89619819D01*
X137218809Y-89619819D02*
X137218809Y-88619819D01*
X137218809Y-88619819D02*
X137123571Y-88762676D01*
X137123571Y-88762676D02*
X137028333Y-88857914D01*
X137028333Y-88857914D02*
X136933095Y-88905533D01*
%TO.C,JP1*%
D11*
X181850000Y-69650000D02*
X181850000Y-71030000D01*
X180470000Y-69650000D02*
X181850000Y-69650000D01*
X179200000Y-69650000D02*
X176550000Y-69650000D01*
X179200000Y-69650000D02*
X179200000Y-72410000D01*
X176550000Y-69650000D02*
X176550000Y-72410000D01*
X179200000Y-72410000D02*
X176550000Y-72410000D01*
%TO.C,J1*%
X175440000Y-93140000D02*
X183560000Y-93140000D01*
X183560000Y-97860000D01*
X175440000Y-97860000D01*
X175440000Y-93140000D01*
X175440000Y-95250000D02*
X176050000Y-95250000D01*
X175440000Y-96550000D02*
X176050000Y-96550000D01*
X176050000Y-93750000D02*
X176050000Y-97250000D01*
X176050000Y-97250000D02*
X178000000Y-97250000D01*
X178000000Y-97250000D02*
X178000000Y-97860000D01*
X178400000Y-94250000D02*
X178400000Y-93750000D01*
X178500000Y-93750000D02*
X178500000Y-94250000D01*
X178600000Y-93750000D02*
X178600000Y-94250000D01*
X178600000Y-94250000D02*
X178400000Y-94250000D01*
X180400000Y-94250000D02*
X180400000Y-93750000D01*
X180500000Y-93750000D02*
X180500000Y-94250000D01*
X180600000Y-93750000D02*
X180600000Y-94250000D01*
X180600000Y-94250000D02*
X180400000Y-94250000D01*
X181000000Y-97250000D02*
X182950000Y-97250000D01*
X181000000Y-97860000D02*
X181000000Y-97250000D01*
X181800000Y-97860000D02*
X181800000Y-98060000D01*
X181800000Y-97960000D02*
X182100000Y-97960000D01*
X181800000Y-98060000D02*
X182100000Y-98060000D01*
X182100000Y-98060000D02*
X182100000Y-97860000D01*
X182610000Y-98160000D02*
X183860000Y-98160000D01*
X182950000Y-93750000D02*
X176050000Y-93750000D01*
X182950000Y-97250000D02*
X182950000Y-93750000D01*
X183560000Y-95250000D02*
X182950000Y-95250000D01*
X183560000Y-96550000D02*
X182950000Y-96550000D01*
X183860000Y-98160000D02*
X183860000Y-96910000D01*
%TO.C,R2*%
X119639564Y-107265000D02*
X119185436Y-107265000D01*
X119639564Y-108735000D02*
X119185436Y-108735000D01*
%TO.C,R3*%
X119639564Y-104315000D02*
X119185436Y-104315000D01*
X119639564Y-105785000D02*
X119185436Y-105785000D01*
%TO.C,R1*%
X119639564Y-110215000D02*
X119185436Y-110215000D01*
X119639564Y-111685000D02*
X119185436Y-111685000D01*
%TO.C,C2*%
X149288748Y-103765000D02*
X149811252Y-103765000D01*
X149288748Y-105235000D02*
X149811252Y-105235000D01*
%TO.C,C1*%
X116187651Y-68685000D02*
X116987651Y-68685000D01*
X116587651Y-68285000D02*
X116587651Y-69085000D01*
X120597349Y-66920000D02*
X120597349Y-75080000D01*
X120637349Y-66920000D02*
X120637349Y-75080000D01*
X120677349Y-66921000D02*
X120677349Y-75079000D01*
X120717349Y-66922000D02*
X120717349Y-75078000D01*
X120757349Y-66923000D02*
X120757349Y-75077000D01*
X120797349Y-66925000D02*
X120797349Y-75075000D01*
X120837349Y-66927000D02*
X120837349Y-75073000D01*
X120877349Y-66930000D02*
X120877349Y-75070000D01*
X120917349Y-66932000D02*
X120917349Y-75068000D01*
X120957349Y-66936000D02*
X120957349Y-75064000D01*
X120997349Y-66939000D02*
X120997349Y-75061000D01*
X121037349Y-66944000D02*
X121037349Y-75056000D01*
X121077349Y-66948000D02*
X121077349Y-75052000D01*
X121117349Y-66953000D02*
X121117349Y-75047000D01*
X121157349Y-66958000D02*
X121157349Y-75042000D01*
X121197349Y-66964000D02*
X121197349Y-75036000D01*
X121237349Y-66970000D02*
X121237349Y-75030000D01*
X121277349Y-66977000D02*
X121277349Y-75023000D01*
X121317349Y-66983000D02*
X121317349Y-69960000D01*
X121317349Y-72040000D02*
X121317349Y-75017000D01*
X121357349Y-66991000D02*
X121357349Y-69960000D01*
X121357349Y-72040000D02*
X121357349Y-75009000D01*
X121397349Y-66998000D02*
X121397349Y-69960000D01*
X121397349Y-72040000D02*
X121397349Y-75002000D01*
X121437349Y-67007000D02*
X121437349Y-69960000D01*
X121437349Y-72040000D02*
X121437349Y-74993000D01*
X121477349Y-67015000D02*
X121477349Y-69960000D01*
X121477349Y-72040000D02*
X121477349Y-74985000D01*
X121517349Y-67024000D02*
X121517349Y-69960000D01*
X121517349Y-72040000D02*
X121517349Y-74976000D01*
X121557349Y-67033000D02*
X121557349Y-69960000D01*
X121557349Y-72040000D02*
X121557349Y-74967000D01*
X121597349Y-67043000D02*
X121597349Y-69960000D01*
X121597349Y-72040000D02*
X121597349Y-74957000D01*
X121637349Y-67053000D02*
X121637349Y-69960000D01*
X121637349Y-72040000D02*
X121637349Y-74947000D01*
X121677349Y-67064000D02*
X121677349Y-69960000D01*
X121677349Y-72040000D02*
X121677349Y-74936000D01*
X121717349Y-67075000D02*
X121717349Y-69960000D01*
X121717349Y-72040000D02*
X121717349Y-74925000D01*
X121757349Y-67087000D02*
X121757349Y-69960000D01*
X121757349Y-72040000D02*
X121757349Y-74913000D01*
X121797349Y-67099000D02*
X121797349Y-69960000D01*
X121797349Y-72040000D02*
X121797349Y-74901000D01*
X121837349Y-67111000D02*
X121837349Y-69960000D01*
X121837349Y-72040000D02*
X121837349Y-74889000D01*
X121877349Y-67124000D02*
X121877349Y-69960000D01*
X121877349Y-72040000D02*
X121877349Y-74876000D01*
X121917349Y-67137000D02*
X121917349Y-69960000D01*
X121917349Y-72040000D02*
X121917349Y-74863000D01*
X121957349Y-67151000D02*
X121957349Y-69960000D01*
X121957349Y-72040000D02*
X121957349Y-74849000D01*
X121997349Y-67165000D02*
X121997349Y-69960000D01*
X121997349Y-72040000D02*
X121997349Y-74835000D01*
X122037349Y-67180000D02*
X122037349Y-69960000D01*
X122037349Y-72040000D02*
X122037349Y-74820000D01*
X122077349Y-67195000D02*
X122077349Y-69960000D01*
X122077349Y-72040000D02*
X122077349Y-74805000D01*
X122117349Y-67211000D02*
X122117349Y-69960000D01*
X122117349Y-72040000D02*
X122117349Y-74789000D01*
X122157349Y-67227000D02*
X122157349Y-69960000D01*
X122157349Y-72040000D02*
X122157349Y-74773000D01*
X122197349Y-67243000D02*
X122197349Y-69960000D01*
X122197349Y-72040000D02*
X122197349Y-74757000D01*
X122237349Y-67260000D02*
X122237349Y-69960000D01*
X122237349Y-72040000D02*
X122237349Y-74740000D01*
X122277349Y-67278000D02*
X122277349Y-69960000D01*
X122277349Y-72040000D02*
X122277349Y-74722000D01*
X122317349Y-67296000D02*
X122317349Y-69960000D01*
X122317349Y-72040000D02*
X122317349Y-74704000D01*
X122357349Y-67315000D02*
X122357349Y-69960000D01*
X122357349Y-72040000D02*
X122357349Y-74685000D01*
X122397349Y-67334000D02*
X122397349Y-69960000D01*
X122397349Y-72040000D02*
X122397349Y-74666000D01*
X122437349Y-67354000D02*
X122437349Y-69960000D01*
X122437349Y-72040000D02*
X122437349Y-74646000D01*
X122477349Y-67374000D02*
X122477349Y-69960000D01*
X122477349Y-72040000D02*
X122477349Y-74626000D01*
X122517349Y-67395000D02*
X122517349Y-69960000D01*
X122517349Y-72040000D02*
X122517349Y-74605000D01*
X122557349Y-67416000D02*
X122557349Y-69960000D01*
X122557349Y-72040000D02*
X122557349Y-74584000D01*
X122597349Y-67438000D02*
X122597349Y-69960000D01*
X122597349Y-72040000D02*
X122597349Y-74562000D01*
X122637349Y-67461000D02*
X122637349Y-69960000D01*
X122637349Y-72040000D02*
X122637349Y-74539000D01*
X122677349Y-67484000D02*
X122677349Y-69960000D01*
X122677349Y-72040000D02*
X122677349Y-74516000D01*
X122717349Y-67507000D02*
X122717349Y-69960000D01*
X122717349Y-72040000D02*
X122717349Y-74493000D01*
X122757349Y-67532000D02*
X122757349Y-69960000D01*
X122757349Y-72040000D02*
X122757349Y-74468000D01*
X122797349Y-67557000D02*
X122797349Y-69960000D01*
X122797349Y-72040000D02*
X122797349Y-74443000D01*
X122837349Y-67582000D02*
X122837349Y-69960000D01*
X122837349Y-72040000D02*
X122837349Y-74418000D01*
X122877349Y-67608000D02*
X122877349Y-69960000D01*
X122877349Y-72040000D02*
X122877349Y-74392000D01*
X122917349Y-67635000D02*
X122917349Y-69960000D01*
X122917349Y-72040000D02*
X122917349Y-74365000D01*
X122957349Y-67663000D02*
X122957349Y-69960000D01*
X122957349Y-72040000D02*
X122957349Y-74337000D01*
X122997349Y-67691000D02*
X122997349Y-69960000D01*
X122997349Y-72040000D02*
X122997349Y-74309000D01*
X123037349Y-67720000D02*
X123037349Y-69960000D01*
X123037349Y-72040000D02*
X123037349Y-74280000D01*
X123077349Y-67750000D02*
X123077349Y-69960000D01*
X123077349Y-72040000D02*
X123077349Y-74250000D01*
X123117349Y-67781000D02*
X123117349Y-69960000D01*
X123117349Y-72040000D02*
X123117349Y-74219000D01*
X123157349Y-67812000D02*
X123157349Y-69960000D01*
X123157349Y-72040000D02*
X123157349Y-74188000D01*
X123197349Y-67844000D02*
X123197349Y-69960000D01*
X123197349Y-72040000D02*
X123197349Y-74156000D01*
X123237349Y-67877000D02*
X123237349Y-69960000D01*
X123237349Y-72040000D02*
X123237349Y-74123000D01*
X123277349Y-67911000D02*
X123277349Y-69960000D01*
X123277349Y-72040000D02*
X123277349Y-74089000D01*
X123317349Y-67945000D02*
X123317349Y-69960000D01*
X123317349Y-72040000D02*
X123317349Y-74055000D01*
X123357349Y-67981000D02*
X123357349Y-69960000D01*
X123357349Y-72040000D02*
X123357349Y-74019000D01*
X123397349Y-68018000D02*
X123397349Y-73982000D01*
X123437349Y-68055000D02*
X123437349Y-73945000D01*
X123477349Y-68094000D02*
X123477349Y-73906000D01*
X123517349Y-68133000D02*
X123517349Y-73867000D01*
X123557349Y-68174000D02*
X123557349Y-73826000D01*
X123597349Y-68216000D02*
X123597349Y-73784000D01*
X123637349Y-68259000D02*
X123637349Y-73741000D01*
X123677349Y-68304000D02*
X123677349Y-73696000D01*
X123717349Y-68349000D02*
X123717349Y-73651000D01*
X123757349Y-68396000D02*
X123757349Y-73604000D01*
X123797349Y-68445000D02*
X123797349Y-73555000D01*
X123837349Y-68495000D02*
X123837349Y-73505000D01*
X123877349Y-68547000D02*
X123877349Y-73453000D01*
X123917349Y-68600000D02*
X123917349Y-73400000D01*
X123957349Y-68656000D02*
X123957349Y-73344000D01*
X123997349Y-68713000D02*
X123997349Y-73287000D01*
X124037349Y-68773000D02*
X124037349Y-73227000D01*
X124077349Y-68835000D02*
X124077349Y-73165000D01*
X124117349Y-68899000D02*
X124117349Y-73101000D01*
X124157349Y-68966000D02*
X124157349Y-73034000D01*
X124197349Y-69036000D02*
X124197349Y-72964000D01*
X124237349Y-69110000D02*
X124237349Y-72890000D01*
X124277349Y-69187000D02*
X124277349Y-72813000D01*
X124317349Y-69269000D02*
X124317349Y-72731000D01*
X124357349Y-69356000D02*
X124357349Y-72644000D01*
X124397349Y-69448000D02*
X124397349Y-72552000D01*
X124437349Y-69547000D02*
X124437349Y-72453000D01*
X124477349Y-69654000D02*
X124477349Y-72346000D01*
X124517349Y-69772000D02*
X124517349Y-72228000D01*
X124557349Y-69903000D02*
X124557349Y-72097000D01*
X124597349Y-70053000D02*
X124597349Y-71947000D01*
X124637349Y-70232000D02*
X124637349Y-71768000D01*
X124677349Y-70467000D02*
X124677349Y-71533000D01*
X124717349Y-71000000D02*
G75*
G02*
X116477349Y-71000000I-4120000J0D01*
G01*
X116477349Y-71000000D02*
G75*
G02*
X124717349Y-71000000I4120000J0D01*
G01*
%TO.C,J2*%
X164120000Y-113000000D02*
X165500000Y-113000000D01*
X164120000Y-114380000D02*
X164120000Y-113000000D01*
X164120000Y-115650000D02*
X164120000Y-123380000D01*
X164120000Y-115650000D02*
X166880000Y-115650000D01*
X164120000Y-123380000D02*
X166880000Y-123380000D01*
X166880000Y-115650000D02*
X166880000Y-123380000D01*
%TO.C,BT1*%
D12*
X166770000Y-63230000D02*
X166770000Y-78770000D01*
X132230000Y-63230000D02*
X166770000Y-63230000D01*
X132230000Y-78770000D02*
X132230000Y-63230000D01*
X162760000Y-78770000D02*
X132230000Y-78770000D01*
X166770000Y-78770000D02*
X165510000Y-78770000D01*
X168250000Y-71000000D02*
X167250000Y-71000000D01*
X167750000Y-71500000D02*
X167750000Y-70500000D01*
X131750000Y-71000000D02*
X130750000Y-71000000D01*
%TO.C,U1*%
D11*
X127775000Y-90365000D02*
X145615000Y-90365000D01*
X145615000Y-90365000D02*
X145615000Y-123295000D01*
X145615000Y-123295000D02*
X127775000Y-123295000D01*
X127775000Y-123295000D02*
X127775000Y-90365000D01*
X146065000Y-121570000D02*
X146065000Y-122570000D01*
X146065000Y-121570000D02*
X145265000Y-122070000D01*
X146065000Y-122570000D02*
X145265000Y-122070000D01*
%TD*%
M02*
