%TF.GenerationSoftware,KiCad,Pcbnew,10.0.3*%
%TF.CreationDate,2026-06-16T14:38:08-05:00*%
%TF.ProjectId,Freezer_Monitor,46726565-7a65-4725-9f4d-6f6e69746f72,rev?*%
%TF.SameCoordinates,Original*%
%TF.FileFunction,Copper,L1,Top*%
%TF.FilePolarity,Positive*%
%FSLAX46Y46*%
G04 Gerber Fmt 4.6, Leading zero omitted, Abs format (unit mm)*
G04 Created by KiCad (PCBNEW 10.0.3) date 2026-06-16 14:38:08*
%MOMM*%
%LPD*%
G01*
G04 APERTURE LIST*
G04 Aperture macros list*
%AMRoundRect*
0 Rectangle with rounded corners*
0 $1 Rounding radius*
0 $2 $3 $4 $5 $6 $7 $8 $9 X,Y pos of 4 corners*
0 Add a 4 corners polygon primitive as box body*
4,1,4,$2,$3,$4,$5,$6,$7,$8,$9,$2,$3,0*
0 Add four circle primitives for the rounded corners*
1,1,$1+$1,$2,$3*
1,1,$1+$1,$4,$5*
1,1,$1+$1,$6,$7*
1,1,$1+$1,$8,$9*
0 Add four rect primitives between the rounded corners*
20,1,$1+$1,$2,$3,$4,$5,0*
20,1,$1+$1,$4,$5,$6,$7,0*
20,1,$1+$1,$6,$7,$8,$9,0*
20,1,$1+$1,$8,$9,$2,$3,0*%
G04 Aperture macros list end*
%TA.AperFunction,ComponentPad*%
%ADD10R,1.700000X1.700000*%
%TD*%
%TA.AperFunction,ComponentPad*%
%ADD11C,1.700000*%
%TD*%
%TA.AperFunction,ComponentPad*%
%ADD12O,1.200000X1.750000*%
%TD*%
%TA.AperFunction,ComponentPad*%
%ADD13RoundRect,0.250000X0.350000X0.625000X-0.350000X0.625000X-0.350000X-0.625000X0.350000X-0.625000X0*%
%TD*%
%TA.AperFunction,SMDPad,CuDef*%
%ADD14RoundRect,0.250000X0.262500X0.450000X-0.262500X0.450000X-0.262500X-0.450000X0.262500X-0.450000X0*%
%TD*%
%TA.AperFunction,SMDPad,CuDef*%
%ADD15RoundRect,0.250000X-0.250000X-0.475000X0.250000X-0.475000X0.250000X0.475000X-0.250000X0.475000X0*%
%TD*%
%TA.AperFunction,ComponentPad*%
%ADD16RoundRect,0.250000X-0.550000X-0.550000X0.550000X-0.550000X0.550000X0.550000X-0.550000X0.550000X0*%
%TD*%
%TA.AperFunction,ComponentPad*%
%ADD17C,1.600000*%
%TD*%
%TA.AperFunction,ComponentPad*%
%ADD18C,1.785000*%
%TD*%
%TA.AperFunction,Conductor*%
%ADD19C,0.200000*%
%TD*%
G04 APERTURE END LIST*
D10*
%TO.P,JP1,1*%
%TO.N,CELL+*%
X180470000Y-71030000D03*
D11*
%TO.P,JP1,2*%
%TO.N,VBAT*%
X177930000Y-71030000D03*
%TD*%
D12*
%TO.P,J1,3*%
%TO.N,GND*%
X177500000Y-96050000D03*
%TO.P,J1,2*%
%TO.N,DATA*%
X179500000Y-96050000D03*
D13*
%TO.P,J1,1*%
%TO.N,VBAT*%
X181500000Y-96050000D03*
%TD*%
D14*
%TO.P,R2,2*%
%TO.N,GND*%
X118500000Y-108000000D03*
%TO.P,R2,1*%
%TO.N,SENSE*%
X120325000Y-108000000D03*
%TD*%
%TO.P,R3,2*%
%TO.N,DATA*%
X118500000Y-105050000D03*
%TO.P,R3,1*%
%TO.N,VBAT*%
X120325000Y-105050000D03*
%TD*%
%TO.P,R1,2*%
%TO.N,SENSE*%
X118500000Y-110950000D03*
%TO.P,R1,1*%
%TO.N,VBAT*%
X120325000Y-110950000D03*
%TD*%
D15*
%TO.P,C2,1*%
%TO.N,SENSE*%
X148600000Y-104500000D03*
%TO.P,C2,2*%
%TO.N,GND*%
X150500000Y-104500000D03*
%TD*%
D16*
%TO.P,C1,1*%
%TO.N,VBAT*%
X118847349Y-71000000D03*
D17*
%TO.P,C1,2*%
%TO.N,GND*%
X122347349Y-71000000D03*
%TD*%
D10*
%TO.P,J2,1*%
%TO.N,GND*%
X165500000Y-114380000D03*
D11*
%TO.P,J2,2*%
%TO.N,VREF*%
X165500000Y-116920000D03*
%TO.P,J2,3*%
%TO.N,TX*%
X165500000Y-119460000D03*
%TO.P,J2,4*%
%TO.N,RX*%
X165500000Y-122000000D03*
%TD*%
D18*
%TO.P,BT1,P*%
%TO.N,CELL+*%
X164190000Y-71000000D03*
%TO.P,BT1,N*%
%TO.N,GND*%
X134810000Y-71000000D03*
%TD*%
D11*
%TO.P,U1,P0.10*%
%TO.N,N/C*%
X129075000Y-91590000D03*
%TO.P,U1,P0.09*%
X129075000Y-94130000D03*
%TO.P,U1,P1.11*%
X129075000Y-96670000D03*
%TO.P,U1,P1.13*%
X129075000Y-99210000D03*
%TO.P,U1,P1.15*%
X129075000Y-101750000D03*
%TO.P,U1,P0.02*%
%TO.N,SENSE*%
X129075000Y-104290000D03*
%TO.P,U1,P0.29*%
%TO.N,N/C*%
X129075000Y-106830000D03*
%TO.P,U1,P0.31*%
X129075000Y-109370000D03*
%TO.P,U1,VCC*%
X129075000Y-111910000D03*
%TO.P,U1,RST*%
X129075000Y-114450000D03*
%TO.P,U1,GND*%
%TO.N,GND*%
X129075000Y-116990000D03*
%TO.P,U1,RAW*%
%TO.N,N/C*%
X129075000Y-119530000D03*
%TO.P,U1,B+*%
%TO.N,VBAT*%
X129075000Y-122070000D03*
%TO.P,U1,P1.06*%
%TO.N,VREF*%
X144315000Y-91590000D03*
%TO.P,U1,P1.04*%
%TO.N,N/C*%
X144315000Y-94130000D03*
%TO.P,U1,P0.11*%
X144315000Y-96670000D03*
%TO.P,U1,P1.00*%
X144315000Y-99210000D03*
%TO.P,U1,P0.24*%
%TO.N,DATA*%
X144315000Y-101750000D03*
%TO.P,U1,P0.22*%
%TO.N,N/C*%
X144315000Y-104290000D03*
%TO.P,U1,P0.20*%
X144315000Y-106830000D03*
%TO.P,U1,P0.17*%
X144315000Y-109370000D03*
%TO.P,U1,GND*%
%TO.N,GND*%
X144315000Y-111910000D03*
X144315000Y-114450000D03*
%TO.P,U1,P0.08*%
%TO.N,RX*%
X144315000Y-116990000D03*
%TO.P,U1,P0.06*%
%TO.N,TX*%
X144315000Y-119530000D03*
D10*
%TO.P,U1,B-*%
%TO.N,GND*%
X144315000Y-122070000D03*
%TD*%
%TO.N,SENSE*%
D19*
X130225000Y-103140000D02*
X129075000Y-104290000D01*
X147240000Y-103140000D02*
X130225000Y-103140000D01*
X148600000Y-104500000D02*
X147240000Y-103140000D01*
%TO.N,DATA*%
X173800000Y-101750000D02*
X179500000Y-96050000D01*
X144315000Y-101750000D02*
X173800000Y-101750000D01*
X143165000Y-100600000D02*
X144315000Y-101750000D01*
X128598654Y-100600000D02*
X143165000Y-100600000D01*
X119695343Y-72036750D02*
X119695343Y-91696689D01*
X119947349Y-71784744D02*
X119695343Y-72036750D01*
X119947349Y-70215256D02*
X119947349Y-71784744D01*
X119632093Y-69900000D02*
X119947349Y-70215256D01*
X119695343Y-91696689D02*
X128598654Y-100600000D01*
X118062605Y-69900000D02*
X119632093Y-69900000D01*
X117747349Y-70215256D02*
X118062605Y-69900000D01*
X117747349Y-104297349D02*
X117747349Y-70215256D01*
X118500000Y-105050000D02*
X117747349Y-104297349D01*
%TO.N,VBAT*%
X118847349Y-103572349D02*
X118847349Y-71000000D01*
X120325000Y-105050000D02*
X118847349Y-103572349D01*
X119325000Y-111950000D02*
X120325000Y-110950000D01*
X118002756Y-111950000D02*
X119325000Y-111950000D01*
X117687500Y-111634744D02*
X118002756Y-111950000D01*
X117687500Y-110265256D02*
X117687500Y-111634744D01*
X118002756Y-109950000D02*
X117687500Y-110265256D01*
X118934314Y-109950000D02*
X118002756Y-109950000D01*
X119512500Y-109371814D02*
X118934314Y-109950000D01*
X119512500Y-105862500D02*
X119512500Y-109371814D01*
X120325000Y-105050000D02*
X119512500Y-105862500D01*
%TO.N,SENSE*%
X125365000Y-108000000D02*
X129075000Y-104290000D01*
X120325000Y-108000000D02*
X125365000Y-108000000D01*
X120325000Y-109125000D02*
X118500000Y-110950000D01*
X120325000Y-108000000D02*
X120325000Y-109125000D01*
%TO.N,VBAT*%
X120325000Y-116325000D02*
X126000000Y-122000000D01*
X120325000Y-110950000D02*
X120325000Y-116325000D01*
%TO.N,SENSE*%
X118500000Y-110950000D02*
X118275000Y-111175000D01*
%TO.N,VBAT*%
X118847349Y-71000000D02*
X118500000Y-71347349D01*
%TO.N,GND*%
X122450000Y-71102651D02*
X122347349Y-71000000D01*
%TO.N,SENSE*%
X118375000Y-110950000D02*
X118325000Y-111000000D01*
X118500000Y-110950000D02*
X118375000Y-110950000D01*
%TO.N,VREF*%
X175645685Y-116920000D02*
X165500000Y-116920000D01*
X180400000Y-95402208D02*
X180400000Y-112165685D01*
X176587792Y-91590000D02*
X180400000Y-95402208D01*
X144315000Y-91590000D02*
X176587792Y-91590000D01*
X180400000Y-112165685D02*
X175645685Y-116920000D01*
%TO.N,TX*%
X165430000Y-119530000D02*
X165500000Y-119460000D01*
X144315000Y-119530000D02*
X165430000Y-119530000D01*
%TO.N,RX*%
X142000000Y-117000000D02*
X142010000Y-116990000D01*
X141500000Y-117000000D02*
X142000000Y-117000000D01*
X141500000Y-120840000D02*
X141500000Y-117000000D01*
X141580000Y-120920000D02*
X141500000Y-120840000D01*
X142010000Y-116990000D02*
X144315000Y-116990000D01*
X159000000Y-122000000D02*
X165500000Y-122000000D01*
X157920000Y-120920000D02*
X159000000Y-122000000D01*
X141580000Y-120920000D02*
X157920000Y-120920000D01*
%TO.N,GND*%
X144450000Y-114450000D02*
X144520000Y-114380000D01*
X144315000Y-114450000D02*
X144450000Y-114450000D01*
%TO.N,VBAT*%
X125000000Y-123000000D02*
X126000000Y-122000000D01*
X126000000Y-122000000D02*
X126070000Y-122070000D01*
X125000000Y-126900000D02*
X125000000Y-123000000D01*
X170100000Y-126900000D02*
X125000000Y-126900000D01*
X126070000Y-122070000D02*
X129075000Y-122070000D01*
X181500000Y-96050000D02*
X181500000Y-115500000D01*
X181500000Y-115500000D02*
X170100000Y-126900000D01*
X181500000Y-74600000D02*
X181500000Y-96050000D01*
X177930000Y-71030000D02*
X181500000Y-74600000D01*
%TO.N,CELL+*%
X165120000Y-69880000D02*
X179320000Y-69880000D01*
X164000000Y-71000000D02*
X165120000Y-69880000D01*
X164190000Y-71000000D02*
X164000000Y-71000000D01*
X179320000Y-69880000D02*
X180470000Y-71030000D01*
X180500000Y-71000000D02*
X180470000Y-71030000D01*
%TO.N,VREF*%
X165500000Y-116920000D02*
X165500000Y-117000000D01*
%TO.N,GND*%
X165500000Y-114380000D02*
X165500000Y-114000000D01*
%TD*%
%TA.AperFunction,Conductor*%
%TO.N,GND*%
G36*
X142969912Y-103760185D02*
G01*
X143015667Y-103812989D01*
X143025611Y-103882147D01*
X143020805Y-103902813D01*
X142999080Y-103969673D01*
X142997753Y-103973760D01*
X142992443Y-104007288D01*
X142964500Y-104183713D01*
X142964500Y-104396287D01*
X142972564Y-104447200D01*
X142988844Y-104549992D01*
X142997754Y-104606243D01*
X143055814Y-104784934D01*
X143063444Y-104808414D01*
X143159951Y-104997820D01*
X143284890Y-105169786D01*
X143435213Y-105320109D01*
X143607182Y-105445050D01*
X143615946Y-105449516D01*
X143666742Y-105497491D01*
X143683536Y-105565312D01*
X143660998Y-105631447D01*
X143615946Y-105670484D01*
X143607182Y-105674949D01*
X143435213Y-105799890D01*
X143284890Y-105950213D01*
X143159951Y-106122179D01*
X143063444Y-106311585D01*
X142997753Y-106513760D01*
X142973335Y-106667930D01*
X142964500Y-106723713D01*
X142964500Y-106936287D01*
X142967889Y-106957684D01*
X142987474Y-107081342D01*
X142997754Y-107146243D01*
X143056489Y-107327011D01*
X143063444Y-107348414D01*
X143159951Y-107537820D01*
X143284890Y-107709786D01*
X143435213Y-107860109D01*
X143607182Y-107985050D01*
X143615946Y-107989516D01*
X143666742Y-108037491D01*
X143683536Y-108105312D01*
X143660998Y-108171447D01*
X143615946Y-108210484D01*
X143607182Y-108214949D01*
X143435213Y-108339890D01*
X143284890Y-108490213D01*
X143159951Y-108662179D01*
X143063444Y-108851585D01*
X142997753Y-109053760D01*
X142969091Y-109234726D01*
X142964500Y-109263713D01*
X142964500Y-109476287D01*
X142997754Y-109686243D01*
X143039650Y-109815186D01*
X143063444Y-109888414D01*
X143159951Y-110077820D01*
X143284890Y-110249786D01*
X143435213Y-110400109D01*
X143607179Y-110525048D01*
X143607181Y-110525049D01*
X143607184Y-110525051D01*
X143616493Y-110529794D01*
X143667290Y-110577766D01*
X143684087Y-110645587D01*
X143661552Y-110711722D01*
X143616505Y-110750760D01*
X143607446Y-110755376D01*
X143607440Y-110755380D01*
X143553282Y-110794727D01*
X143553282Y-110794728D01*
X144185591Y-111427037D01*
X144122007Y-111444075D01*
X144007993Y-111509901D01*
X143914901Y-111602993D01*
X143849075Y-111717007D01*
X143832037Y-111780591D01*
X143199728Y-111148282D01*
X143199727Y-111148282D01*
X143160380Y-111202439D01*
X143063904Y-111391782D01*
X142998242Y-111593869D01*
X142998242Y-111593872D01*
X142965000Y-111803753D01*
X142965000Y-112016246D01*
X142998242Y-112226127D01*
X142998242Y-112226130D01*
X143063904Y-112428217D01*
X143160375Y-112617550D01*
X143199728Y-112671716D01*
X143832037Y-112039408D01*
X143849075Y-112102993D01*
X143914901Y-112217007D01*
X144007993Y-112310099D01*
X144122007Y-112375925D01*
X144185591Y-112392962D01*
X143584971Y-112993581D01*
X143663711Y-113110895D01*
X143664920Y-113114729D01*
X143667844Y-113117491D01*
X143675343Y-113147778D01*
X143684727Y-113177529D01*
X143683671Y-113181408D01*
X143684638Y-113185312D01*
X143674573Y-113214844D01*
X143666383Y-113244947D01*
X143663397Y-113247640D01*
X143662100Y-113251447D01*
X143617051Y-113290483D01*
X143607440Y-113295380D01*
X143553282Y-113334727D01*
X143553282Y-113334728D01*
X144185591Y-113967037D01*
X144122007Y-113984075D01*
X144007993Y-114049901D01*
X143914901Y-114142993D01*
X143849075Y-114257007D01*
X143832037Y-114320591D01*
X143199728Y-113688282D01*
X143199727Y-113688282D01*
X143160380Y-113742439D01*
X143063904Y-113931782D01*
X142998242Y-114133869D01*
X142998242Y-114133872D01*
X142965000Y-114343753D01*
X142965000Y-114556246D01*
X142998242Y-114766127D01*
X142998242Y-114766130D01*
X143063904Y-114968217D01*
X143160375Y-115157550D01*
X143199728Y-115211716D01*
X143832037Y-114579408D01*
X143849075Y-114642993D01*
X143914901Y-114757007D01*
X144007993Y-114850099D01*
X144122007Y-114915925D01*
X144185590Y-114932962D01*
X143553282Y-115565269D01*
X143553282Y-115565270D01*
X143607452Y-115604626D01*
X143607451Y-115604626D01*
X143616495Y-115609234D01*
X143667292Y-115657208D01*
X143684087Y-115725029D01*
X143661550Y-115791164D01*
X143616499Y-115830202D01*
X143607182Y-115834949D01*
X143435213Y-115959890D01*
X143284890Y-116110213D01*
X143159948Y-116282184D01*
X143159947Y-116282185D01*
X143139765Y-116321795D01*
X143091791Y-116372591D01*
X143029281Y-116389500D01*
X142089057Y-116389500D01*
X141930943Y-116389500D01*
X141909389Y-116395275D01*
X141877298Y-116399500D01*
X141420943Y-116399500D01*
X141268216Y-116440423D01*
X141268209Y-116440426D01*
X141131290Y-116519475D01*
X141131282Y-116519481D01*
X141019481Y-116631282D01*
X141019475Y-116631290D01*
X140940426Y-116768209D01*
X140940423Y-116768216D01*
X140899500Y-116920943D01*
X140899500Y-120753330D01*
X140899499Y-120753348D01*
X140899499Y-120919054D01*
X140899498Y-120919054D01*
X140940423Y-121071785D01*
X140961301Y-121107945D01*
X140961302Y-121107949D01*
X140961303Y-121107949D01*
X141019480Y-121208716D01*
X141099480Y-121288716D01*
X141211284Y-121400520D01*
X141211286Y-121400521D01*
X141211290Y-121400524D01*
X141280394Y-121440421D01*
X141280398Y-121440422D01*
X141280399Y-121440423D01*
X141314307Y-121460000D01*
X141348212Y-121479576D01*
X141348214Y-121479576D01*
X141348215Y-121479577D01*
X141500943Y-121520500D01*
X142841000Y-121520500D01*
X142908039Y-121540185D01*
X142953794Y-121592989D01*
X142965000Y-121644500D01*
X142965000Y-121820000D01*
X143881988Y-121820000D01*
X143849075Y-121877007D01*
X143815000Y-122004174D01*
X143815000Y-122135826D01*
X143849075Y-122262993D01*
X143881988Y-122320000D01*
X142965000Y-122320000D01*
X142965000Y-122967844D01*
X142971401Y-123027372D01*
X142971403Y-123027379D01*
X143021645Y-123162086D01*
X143021649Y-123162093D01*
X143107809Y-123277187D01*
X143107812Y-123277190D01*
X143222906Y-123363350D01*
X143222913Y-123363354D01*
X143357620Y-123413596D01*
X143357627Y-123413598D01*
X143417155Y-123419999D01*
X143417172Y-123420000D01*
X144065000Y-123420000D01*
X144065000Y-122503012D01*
X144122007Y-122535925D01*
X144249174Y-122570000D01*
X144380826Y-122570000D01*
X144507993Y-122535925D01*
X144565000Y-122503012D01*
X144565000Y-123420000D01*
X145212828Y-123420000D01*
X145212844Y-123419999D01*
X145272372Y-123413598D01*
X145272379Y-123413596D01*
X145407086Y-123363354D01*
X145407093Y-123363350D01*
X145522187Y-123277190D01*
X145522190Y-123277187D01*
X145608350Y-123162093D01*
X145608354Y-123162086D01*
X145658596Y-123027379D01*
X145658598Y-123027372D01*
X145664999Y-122967844D01*
X145665000Y-122967827D01*
X145665000Y-122320000D01*
X144748012Y-122320000D01*
X144780925Y-122262993D01*
X144815000Y-122135826D01*
X144815000Y-122004174D01*
X144780925Y-121877007D01*
X144748012Y-121820000D01*
X145665000Y-121820000D01*
X145665000Y-121644500D01*
X145684685Y-121577461D01*
X145737489Y-121531706D01*
X145789000Y-121520500D01*
X157619903Y-121520500D01*
X157686942Y-121540185D01*
X157707583Y-121556818D01*
X158631284Y-122480520D01*
X158631286Y-122480521D01*
X158631290Y-122480524D01*
X158698765Y-122519480D01*
X158768216Y-122559577D01*
X158920943Y-122600501D01*
X158920945Y-122600501D01*
X159086654Y-122600501D01*
X159086670Y-122600500D01*
X164214281Y-122600500D01*
X164281320Y-122620185D01*
X164324765Y-122668205D01*
X164344947Y-122707814D01*
X164344948Y-122707815D01*
X164469890Y-122879786D01*
X164620213Y-123030109D01*
X164792179Y-123155048D01*
X164792181Y-123155049D01*
X164792184Y-123155051D01*
X164981588Y-123251557D01*
X165183757Y-123317246D01*
X165393713Y-123350500D01*
X165393714Y-123350500D01*
X165606286Y-123350500D01*
X165606287Y-123350500D01*
X165816243Y-123317246D01*
X166018412Y-123251557D01*
X166207816Y-123155051D01*
X166298665Y-123089046D01*
X166379786Y-123030109D01*
X166379788Y-123030106D01*
X166379792Y-123030104D01*
X166530104Y-122879792D01*
X166530106Y-122879788D01*
X166530109Y-122879786D01*
X166655048Y-122707820D01*
X166655047Y-122707820D01*
X166655051Y-122707816D01*
X166751557Y-122518412D01*
X166817246Y-122316243D01*
X166850500Y-122106287D01*
X166850500Y-121893713D01*
X166817246Y-121683757D01*
X166751557Y-121481588D01*
X166655051Y-121292184D01*
X166655049Y-121292181D01*
X166655048Y-121292179D01*
X166530109Y-121120213D01*
X166379786Y-120969890D01*
X166207820Y-120844951D01*
X166207115Y-120844591D01*
X166199054Y-120840485D01*
X166148259Y-120792512D01*
X166131463Y-120724692D01*
X166153999Y-120658556D01*
X166199054Y-120619515D01*
X166207816Y-120615051D01*
X166295582Y-120551286D01*
X166379786Y-120490109D01*
X166379788Y-120490106D01*
X166379792Y-120490104D01*
X166530104Y-120339792D01*
X166530106Y-120339788D01*
X166530109Y-120339786D01*
X166639086Y-120189789D01*
X166655051Y-120167816D01*
X166751557Y-119978412D01*
X166817246Y-119776243D01*
X166850500Y-119566287D01*
X166850500Y-119353713D01*
X166817246Y-119143757D01*
X166751557Y-118941588D01*
X166655051Y-118752184D01*
X166655049Y-118752181D01*
X166655048Y-118752179D01*
X166530109Y-118580213D01*
X166379786Y-118429890D01*
X166207820Y-118304951D01*
X166207115Y-118304591D01*
X166199054Y-118300485D01*
X166148259Y-118252512D01*
X166131463Y-118184692D01*
X166153999Y-118118556D01*
X166199054Y-118079515D01*
X166207816Y-118075051D01*
X166283445Y-118020104D01*
X166379786Y-117950109D01*
X166379788Y-117950106D01*
X166379792Y-117950104D01*
X166530104Y-117799792D01*
X166530106Y-117799788D01*
X166530109Y-117799786D01*
X166604384Y-117697554D01*
X166655051Y-117627816D01*
X166655349Y-117627230D01*
X166675235Y-117588205D01*
X166723209Y-117537409D01*
X166785719Y-117520500D01*
X175559016Y-117520500D01*
X175559032Y-117520501D01*
X175566628Y-117520501D01*
X175724739Y-117520501D01*
X175724742Y-117520501D01*
X175877470Y-117479577D01*
X175927589Y-117450639D01*
X176014401Y-117400520D01*
X176126205Y-117288716D01*
X176126205Y-117288714D01*
X176136413Y-117278507D01*
X176136414Y-117278504D01*
X180264078Y-113150841D01*
X180325398Y-113117359D01*
X180395090Y-113122343D01*
X180451023Y-113164215D01*
X180475440Y-113229679D01*
X180475756Y-113238581D01*
X180474680Y-115624776D01*
X180454965Y-115691806D01*
X180438361Y-115712401D01*
X170266287Y-125884476D01*
X170204964Y-125917961D01*
X170177652Y-125920791D01*
X125723546Y-125578678D01*
X125656660Y-125558478D01*
X125611313Y-125505324D01*
X125600500Y-125454682D01*
X125600500Y-123300097D01*
X125620185Y-123233058D01*
X125636819Y-123212416D01*
X126142417Y-122706819D01*
X126203740Y-122673334D01*
X126230098Y-122670500D01*
X127789281Y-122670500D01*
X127856320Y-122690185D01*
X127899765Y-122738205D01*
X127919947Y-122777814D01*
X127919948Y-122777815D01*
X128044890Y-122949786D01*
X128195213Y-123100109D01*
X128367179Y-123225048D01*
X128367181Y-123225049D01*
X128367184Y-123225051D01*
X128556588Y-123321557D01*
X128758757Y-123387246D01*
X128968713Y-123420500D01*
X128968714Y-123420500D01*
X129181286Y-123420500D01*
X129181287Y-123420500D01*
X129391243Y-123387246D01*
X129593412Y-123321557D01*
X129782816Y-123225051D01*
X129869471Y-123162093D01*
X129954786Y-123100109D01*
X129954788Y-123100106D01*
X129954792Y-123100104D01*
X130105104Y-122949792D01*
X130105106Y-122949788D01*
X130105109Y-122949786D01*
X130230048Y-122777820D01*
X130230047Y-122777820D01*
X130230051Y-122777816D01*
X130326557Y-122588412D01*
X130392246Y-122386243D01*
X130425500Y-122176287D01*
X130425500Y-121963713D01*
X130392246Y-121753757D01*
X130326557Y-121551588D01*
X130230051Y-121362184D01*
X130230049Y-121362181D01*
X130230048Y-121362179D01*
X130105109Y-121190213D01*
X129954786Y-121039890D01*
X129782820Y-120914951D01*
X129782115Y-120914591D01*
X129774054Y-120910485D01*
X129723259Y-120862512D01*
X129706463Y-120794692D01*
X129728999Y-120728556D01*
X129774054Y-120689515D01*
X129782816Y-120685051D01*
X129806985Y-120667491D01*
X129954786Y-120560109D01*
X129954788Y-120560106D01*
X129954792Y-120560104D01*
X130105104Y-120409792D01*
X130105106Y-120409788D01*
X130105109Y-120409786D01*
X130230048Y-120237820D01*
X130230047Y-120237820D01*
X130230051Y-120237816D01*
X130326557Y-120048412D01*
X130392246Y-119846243D01*
X130425500Y-119636287D01*
X130425500Y-119423713D01*
X130392246Y-119213757D01*
X130326557Y-119011588D01*
X130230051Y-118822184D01*
X130230049Y-118822181D01*
X130230048Y-118822179D01*
X130105109Y-118650213D01*
X129954786Y-118499890D01*
X129782817Y-118374949D01*
X129773504Y-118370204D01*
X129722707Y-118322230D01*
X129705912Y-118254409D01*
X129728449Y-118188274D01*
X129773507Y-118149232D01*
X129782555Y-118144622D01*
X129836716Y-118105270D01*
X129836717Y-118105270D01*
X129204408Y-117472962D01*
X129267993Y-117455925D01*
X129382007Y-117390099D01*
X129475099Y-117297007D01*
X129540925Y-117182993D01*
X129557962Y-117119409D01*
X130190270Y-117751717D01*
X130190270Y-117751716D01*
X130229622Y-117697554D01*
X130326095Y-117508217D01*
X130391757Y-117306130D01*
X130391757Y-117306127D01*
X130425000Y-117096246D01*
X130425000Y-116883753D01*
X130391757Y-116673872D01*
X130391757Y-116673869D01*
X130326095Y-116471782D01*
X130229624Y-116282449D01*
X130190270Y-116228282D01*
X130190269Y-116228282D01*
X129557962Y-116860590D01*
X129540925Y-116797007D01*
X129475099Y-116682993D01*
X129382007Y-116589901D01*
X129267993Y-116524075D01*
X129204409Y-116507037D01*
X129836716Y-115874728D01*
X129782547Y-115835373D01*
X129782547Y-115835372D01*
X129773500Y-115830763D01*
X129722706Y-115782788D01*
X129705912Y-115714966D01*
X129728451Y-115648832D01*
X129773508Y-115609793D01*
X129782816Y-115605051D01*
X129862007Y-115547515D01*
X129954786Y-115480109D01*
X129954788Y-115480106D01*
X129954792Y-115480104D01*
X130105104Y-115329792D01*
X130105106Y-115329788D01*
X130105109Y-115329786D01*
X130230048Y-115157820D01*
X130230047Y-115157820D01*
X130230051Y-115157816D01*
X130326557Y-114968412D01*
X130392246Y-114766243D01*
X130425500Y-114556287D01*
X130425500Y-114343713D01*
X130392246Y-114133757D01*
X130326557Y-113931588D01*
X130230051Y-113742184D01*
X130230049Y-113742181D01*
X130230048Y-113742179D01*
X130105109Y-113570213D01*
X129954786Y-113419890D01*
X129782820Y-113294951D01*
X129782115Y-113294591D01*
X129774054Y-113290485D01*
X129723259Y-113242512D01*
X129706463Y-113174692D01*
X129728999Y-113108556D01*
X129774054Y-113069515D01*
X129782816Y-113065051D01*
X129881187Y-112993581D01*
X129954786Y-112940109D01*
X129954788Y-112940106D01*
X129954792Y-112940104D01*
X130105104Y-112789792D01*
X130105106Y-112789788D01*
X130105109Y-112789786D01*
X130230048Y-112617820D01*
X130230047Y-112617820D01*
X130230051Y-112617816D01*
X130326557Y-112428412D01*
X130392246Y-112226243D01*
X130425500Y-112016287D01*
X130425500Y-111803713D01*
X130392246Y-111593757D01*
X130326557Y-111391588D01*
X130230051Y-111202184D01*
X130230049Y-111202181D01*
X130230048Y-111202179D01*
X130105109Y-111030213D01*
X129954786Y-110879890D01*
X129782820Y-110754951D01*
X129774600Y-110750763D01*
X129774054Y-110750485D01*
X129723259Y-110702512D01*
X129706463Y-110634692D01*
X129728999Y-110568556D01*
X129774054Y-110529515D01*
X129782816Y-110525051D01*
X129804789Y-110509086D01*
X129954786Y-110400109D01*
X129954788Y-110400106D01*
X129954792Y-110400104D01*
X130105104Y-110249792D01*
X130105106Y-110249788D01*
X130105109Y-110249786D01*
X130230048Y-110077820D01*
X130230047Y-110077820D01*
X130230051Y-110077816D01*
X130326557Y-109888412D01*
X130392246Y-109686243D01*
X130425500Y-109476287D01*
X130425500Y-109263713D01*
X130392246Y-109053757D01*
X130326557Y-108851588D01*
X130230051Y-108662184D01*
X130230049Y-108662181D01*
X130230048Y-108662179D01*
X130105109Y-108490213D01*
X129954786Y-108339890D01*
X129782820Y-108214951D01*
X129782115Y-108214591D01*
X129774054Y-108210485D01*
X129723259Y-108162512D01*
X129706463Y-108094692D01*
X129728999Y-108028556D01*
X129774054Y-107989515D01*
X129782816Y-107985051D01*
X129840641Y-107943039D01*
X129954786Y-107860109D01*
X129954788Y-107860106D01*
X129954792Y-107860104D01*
X130105104Y-107709792D01*
X130105106Y-107709788D01*
X130105109Y-107709786D01*
X130230048Y-107537820D01*
X130230047Y-107537820D01*
X130230051Y-107537816D01*
X130326557Y-107348412D01*
X130392246Y-107146243D01*
X130425500Y-106936287D01*
X130425500Y-106723713D01*
X130392246Y-106513757D01*
X130326557Y-106311588D01*
X130230051Y-106122184D01*
X130230049Y-106122181D01*
X130230048Y-106122179D01*
X130105109Y-105950213D01*
X129954786Y-105799890D01*
X129782820Y-105674951D01*
X129782115Y-105674591D01*
X129774054Y-105670485D01*
X129723259Y-105622512D01*
X129706463Y-105554692D01*
X129728999Y-105488556D01*
X129774054Y-105449515D01*
X129782816Y-105445051D01*
X129853601Y-105393623D01*
X129954786Y-105320109D01*
X129954788Y-105320106D01*
X129954792Y-105320104D01*
X130105104Y-105169792D01*
X130105106Y-105169788D01*
X130105109Y-105169786D01*
X130230048Y-104997820D01*
X130230047Y-104997820D01*
X130230051Y-104997816D01*
X130326557Y-104808412D01*
X130392246Y-104606243D01*
X130425500Y-104396287D01*
X130425500Y-104183713D01*
X130392246Y-103973757D01*
X130378507Y-103931476D01*
X130378072Y-103916262D01*
X130372754Y-103902000D01*
X130377094Y-103882049D01*
X130376511Y-103861637D01*
X130384601Y-103847547D01*
X130387608Y-103833727D01*
X130408757Y-103805477D01*
X130425861Y-103788373D01*
X130437420Y-103776816D01*
X130498744Y-103743333D01*
X130525098Y-103740500D01*
X142902873Y-103740500D01*
X142969912Y-103760185D01*
G37*
%TD.AperFunction*%
%TA.AperFunction,Conductor*%
G36*
X180442983Y-59519685D02*
G01*
X180488738Y-59572489D01*
X180499944Y-59624056D01*
X180495472Y-69538355D01*
X180495464Y-69555556D01*
X180475749Y-69622587D01*
X180422925Y-69668318D01*
X180371464Y-69679500D01*
X180020099Y-69679500D01*
X179953060Y-69659815D01*
X179932418Y-69643182D01*
X179800521Y-69511286D01*
X179800521Y-69511285D01*
X179688717Y-69399481D01*
X179688716Y-69399480D01*
X179601904Y-69349360D01*
X179601904Y-69349359D01*
X179601900Y-69349358D01*
X179551785Y-69320423D01*
X179399057Y-69279499D01*
X179240943Y-69279499D01*
X179233347Y-69279499D01*
X179233331Y-69279500D01*
X165199057Y-69279500D01*
X165040942Y-69279500D01*
X164888215Y-69320423D01*
X164888214Y-69320423D01*
X164888212Y-69320424D01*
X164888209Y-69320425D01*
X164838096Y-69349359D01*
X164838095Y-69349360D01*
X164803454Y-69369360D01*
X164751285Y-69399479D01*
X164751282Y-69399481D01*
X164639480Y-69511283D01*
X164639480Y-69511284D01*
X164639478Y-69511286D01*
X164595208Y-69555556D01*
X164555059Y-69595705D01*
X164493735Y-69629189D01*
X164447980Y-69630496D01*
X164369858Y-69618122D01*
X164299631Y-69607000D01*
X164080369Y-69607000D01*
X164030165Y-69614951D01*
X163863808Y-69641300D01*
X163655271Y-69709058D01*
X163459908Y-69808600D01*
X163282519Y-69937481D01*
X163127481Y-70092519D01*
X162998600Y-70269908D01*
X162899058Y-70465271D01*
X162831300Y-70673808D01*
X162797000Y-70890369D01*
X162797000Y-71109630D01*
X162827851Y-71304417D01*
X162831301Y-71326195D01*
X162899057Y-71534726D01*
X162998600Y-71730091D01*
X163127479Y-71907478D01*
X163282522Y-72062521D01*
X163459909Y-72191400D01*
X163655274Y-72290943D01*
X163863805Y-72358699D01*
X164080369Y-72393000D01*
X164080370Y-72393000D01*
X164299630Y-72393000D01*
X164299631Y-72393000D01*
X164516195Y-72358699D01*
X164724726Y-72290943D01*
X164920091Y-72191400D01*
X165097478Y-72062521D01*
X165252521Y-71907478D01*
X165381400Y-71730091D01*
X165480943Y-71534726D01*
X165548699Y-71326195D01*
X165583000Y-71109631D01*
X165583000Y-70890369D01*
X165548699Y-70673805D01*
X165538629Y-70642815D01*
X165536635Y-70572978D01*
X165572714Y-70513145D01*
X165635415Y-70482316D01*
X165656561Y-70480500D01*
X176517873Y-70480500D01*
X176584912Y-70500185D01*
X176630667Y-70552989D01*
X176640611Y-70622147D01*
X176635805Y-70642813D01*
X176614080Y-70709673D01*
X176612753Y-70713760D01*
X176579500Y-70923713D01*
X176579500Y-71136286D01*
X176609578Y-71326195D01*
X176612754Y-71346243D01*
X176673935Y-71534539D01*
X176678444Y-71548414D01*
X176774951Y-71737820D01*
X176899890Y-71909786D01*
X177050213Y-72060109D01*
X177222179Y-72185048D01*
X177222181Y-72185049D01*
X177222184Y-72185051D01*
X177411588Y-72281557D01*
X177613757Y-72347246D01*
X177823713Y-72380500D01*
X177823714Y-72380500D01*
X178036286Y-72380500D01*
X178036287Y-72380500D01*
X178246243Y-72347246D01*
X178288523Y-72333507D01*
X178358362Y-72331511D01*
X178414522Y-72363757D01*
X180456916Y-74406151D01*
X180490401Y-74467474D01*
X180493235Y-74493888D01*
X180484282Y-94337949D01*
X180464567Y-94404980D01*
X180411743Y-94450711D01*
X180342580Y-94460623D01*
X180279037Y-94431569D01*
X180272601Y-94425574D01*
X177075382Y-91228355D01*
X177075380Y-91228352D01*
X176956509Y-91109481D01*
X176956508Y-91109480D01*
X176869696Y-91059360D01*
X176869696Y-91059359D01*
X176869692Y-91059358D01*
X176819577Y-91030423D01*
X176666849Y-90989499D01*
X176508735Y-90989499D01*
X176501139Y-90989499D01*
X176501123Y-90989500D01*
X145600719Y-90989500D01*
X145533680Y-90969815D01*
X145490235Y-90921795D01*
X145470052Y-90882185D01*
X145470051Y-90882184D01*
X145345109Y-90710213D01*
X145194786Y-90559890D01*
X145022820Y-90434951D01*
X144833414Y-90338444D01*
X144833413Y-90338443D01*
X144833412Y-90338443D01*
X144631243Y-90272754D01*
X144631241Y-90272753D01*
X144631240Y-90272753D01*
X144469957Y-90247208D01*
X144421287Y-90239500D01*
X144208713Y-90239500D01*
X144160042Y-90247208D01*
X143998760Y-90272753D01*
X143796585Y-90338444D01*
X143607179Y-90434951D01*
X143435213Y-90559890D01*
X143284890Y-90710213D01*
X143159951Y-90882179D01*
X143063444Y-91071585D01*
X142997753Y-91273760D01*
X142964500Y-91483713D01*
X142964500Y-91696286D01*
X142997753Y-91906239D01*
X143063444Y-92108414D01*
X143159951Y-92297820D01*
X143284890Y-92469786D01*
X143435213Y-92620109D01*
X143607182Y-92745050D01*
X143615946Y-92749516D01*
X143666742Y-92797491D01*
X143683536Y-92865312D01*
X143660998Y-92931447D01*
X143615946Y-92970484D01*
X143607182Y-92974949D01*
X143435213Y-93099890D01*
X143284890Y-93250213D01*
X143159951Y-93422179D01*
X143063444Y-93611585D01*
X142997753Y-93813760D01*
X142964500Y-94023713D01*
X142964500Y-94236286D01*
X142991218Y-94404980D01*
X142997754Y-94446243D01*
X143002426Y-94460623D01*
X143063444Y-94648414D01*
X143159951Y-94837820D01*
X143284890Y-95009786D01*
X143435213Y-95160109D01*
X143607182Y-95285050D01*
X143615946Y-95289516D01*
X143666742Y-95337491D01*
X143683536Y-95405312D01*
X143660998Y-95471447D01*
X143615946Y-95510484D01*
X143607182Y-95514949D01*
X143435213Y-95639890D01*
X143284890Y-95790213D01*
X143159951Y-95962179D01*
X143063444Y-96151585D01*
X142997753Y-96353760D01*
X142988597Y-96411571D01*
X142964500Y-96563713D01*
X142964500Y-96776287D01*
X142997754Y-96986243D01*
X143055521Y-97164032D01*
X143063444Y-97188414D01*
X143159951Y-97377820D01*
X143284890Y-97549786D01*
X143435213Y-97700109D01*
X143607182Y-97825050D01*
X143615946Y-97829516D01*
X143666742Y-97877491D01*
X143683536Y-97945312D01*
X143660998Y-98011447D01*
X143615946Y-98050484D01*
X143607182Y-98054949D01*
X143435213Y-98179890D01*
X143284890Y-98330213D01*
X143159951Y-98502179D01*
X143063444Y-98691585D01*
X142997753Y-98893760D01*
X142964500Y-99103713D01*
X142964500Y-99316286D01*
X142997753Y-99526239D01*
X143063444Y-99728414D01*
X143109704Y-99819205D01*
X143122600Y-99887875D01*
X143096323Y-99952615D01*
X143039217Y-99992872D01*
X142999219Y-99999500D01*
X130390781Y-99999500D01*
X130323742Y-99979815D01*
X130277987Y-99927011D01*
X130268043Y-99857853D01*
X130280296Y-99819205D01*
X130290230Y-99799706D01*
X130326557Y-99728412D01*
X130392246Y-99526243D01*
X130425500Y-99316287D01*
X130425500Y-99103713D01*
X130392246Y-98893757D01*
X130326557Y-98691588D01*
X130230051Y-98502184D01*
X130230049Y-98502181D01*
X130230048Y-98502179D01*
X130105109Y-98330213D01*
X129954786Y-98179890D01*
X129782820Y-98054951D01*
X129782115Y-98054591D01*
X129774054Y-98050485D01*
X129723259Y-98002512D01*
X129706463Y-97934692D01*
X129728999Y-97868556D01*
X129774054Y-97829515D01*
X129782816Y-97825051D01*
X129804789Y-97809086D01*
X129954786Y-97700109D01*
X129954788Y-97700106D01*
X129954792Y-97700104D01*
X130105104Y-97549792D01*
X130105106Y-97549788D01*
X130105109Y-97549786D01*
X130214086Y-97399789D01*
X130230051Y-97377816D01*
X130326557Y-97188412D01*
X130392246Y-96986243D01*
X130425500Y-96776287D01*
X130425500Y-96563713D01*
X130392246Y-96353757D01*
X130326557Y-96151588D01*
X130230051Y-95962184D01*
X130230049Y-95962181D01*
X130230048Y-95962179D01*
X130105109Y-95790213D01*
X129954786Y-95639890D01*
X129782820Y-95514951D01*
X129782115Y-95514591D01*
X129774054Y-95510485D01*
X129723259Y-95462512D01*
X129706463Y-95394692D01*
X129728999Y-95328556D01*
X129774054Y-95289515D01*
X129782816Y-95285051D01*
X129804789Y-95269086D01*
X129954786Y-95160109D01*
X129954788Y-95160106D01*
X129954792Y-95160104D01*
X130105104Y-95009792D01*
X130105106Y-95009788D01*
X130105109Y-95009786D01*
X130230048Y-94837820D01*
X130230047Y-94837820D01*
X130230051Y-94837816D01*
X130326557Y-94648412D01*
X130392246Y-94446243D01*
X130425500Y-94236287D01*
X130425500Y-94023713D01*
X130392246Y-93813757D01*
X130326557Y-93611588D01*
X130230051Y-93422184D01*
X130230049Y-93422181D01*
X130230048Y-93422179D01*
X130105109Y-93250213D01*
X129954786Y-93099890D01*
X129782820Y-92974951D01*
X129782115Y-92974591D01*
X129774054Y-92970485D01*
X129723259Y-92922512D01*
X129706463Y-92854692D01*
X129728999Y-92788556D01*
X129774054Y-92749515D01*
X129782816Y-92745051D01*
X129804789Y-92729086D01*
X129954786Y-92620109D01*
X129954788Y-92620106D01*
X129954792Y-92620104D01*
X130105104Y-92469792D01*
X130105106Y-92469788D01*
X130105109Y-92469786D01*
X130230048Y-92297820D01*
X130230047Y-92297820D01*
X130230051Y-92297816D01*
X130326557Y-92108412D01*
X130392246Y-91906243D01*
X130425500Y-91696287D01*
X130425500Y-91483713D01*
X130392246Y-91273757D01*
X130326557Y-91071588D01*
X130230051Y-90882184D01*
X130230049Y-90882181D01*
X130230048Y-90882179D01*
X130105109Y-90710213D01*
X129954786Y-90559890D01*
X129782820Y-90434951D01*
X129593414Y-90338444D01*
X129593413Y-90338443D01*
X129593412Y-90338443D01*
X129391243Y-90272754D01*
X129391241Y-90272753D01*
X129391240Y-90272753D01*
X129229957Y-90247208D01*
X129181287Y-90239500D01*
X128968713Y-90239500D01*
X128920042Y-90247208D01*
X128758760Y-90272753D01*
X128556585Y-90338444D01*
X128367179Y-90434951D01*
X128195213Y-90559890D01*
X128044890Y-90710213D01*
X127919951Y-90882179D01*
X127823444Y-91071585D01*
X127757753Y-91273760D01*
X127724500Y-91483713D01*
X127724500Y-91696286D01*
X127757753Y-91906239D01*
X127823444Y-92108414D01*
X127919951Y-92297820D01*
X128044890Y-92469786D01*
X128195213Y-92620109D01*
X128367182Y-92745050D01*
X128375946Y-92749516D01*
X128426742Y-92797491D01*
X128443536Y-92865312D01*
X128420998Y-92931447D01*
X128375946Y-92970484D01*
X128367182Y-92974949D01*
X128195213Y-93099890D01*
X128044890Y-93250213D01*
X127919951Y-93422179D01*
X127823444Y-93611585D01*
X127757753Y-93813760D01*
X127724500Y-94023713D01*
X127724500Y-94236286D01*
X127751218Y-94404980D01*
X127757754Y-94446243D01*
X127762426Y-94460623D01*
X127823444Y-94648414D01*
X127919951Y-94837820D01*
X128044890Y-95009786D01*
X128195213Y-95160109D01*
X128367182Y-95285050D01*
X128375946Y-95289516D01*
X128426742Y-95337491D01*
X128443536Y-95405312D01*
X128420998Y-95471447D01*
X128375946Y-95510484D01*
X128367182Y-95514949D01*
X128195213Y-95639890D01*
X128044890Y-95790213D01*
X127919951Y-95962179D01*
X127823444Y-96151585D01*
X127757753Y-96353760D01*
X127748597Y-96411571D01*
X127724500Y-96563713D01*
X127724500Y-96776287D01*
X127757754Y-96986243D01*
X127815521Y-97164032D01*
X127823444Y-97188414D01*
X127919951Y-97377820D01*
X128044890Y-97549786D01*
X128195213Y-97700109D01*
X128367182Y-97825050D01*
X128375946Y-97829516D01*
X128426742Y-97877491D01*
X128443536Y-97945312D01*
X128420998Y-98011447D01*
X128375946Y-98050484D01*
X128367182Y-98054949D01*
X128195213Y-98179890D01*
X128044890Y-98330213D01*
X127919951Y-98502179D01*
X127823443Y-98691586D01*
X127816332Y-98713472D01*
X127776893Y-98771147D01*
X127712534Y-98798343D01*
X127643688Y-98786427D01*
X127610721Y-98762832D01*
X120332162Y-91484273D01*
X120298677Y-91422950D01*
X120295843Y-91396592D01*
X120295843Y-77632365D01*
X162949500Y-77632365D01*
X162949500Y-77827634D01*
X162980045Y-78020485D01*
X163040381Y-78206184D01*
X163040382Y-78206187D01*
X163129031Y-78380167D01*
X163243793Y-78538125D01*
X163243797Y-78538130D01*
X163381869Y-78676202D01*
X163381874Y-78676206D01*
X163519653Y-78776307D01*
X163539836Y-78790971D01*
X163653565Y-78848919D01*
X163713812Y-78879617D01*
X163713815Y-78879618D01*
X163806664Y-78909786D01*
X163899516Y-78939955D01*
X163988835Y-78954101D01*
X164092366Y-78970500D01*
X164092371Y-78970500D01*
X164287634Y-78970500D01*
X164381125Y-78955691D01*
X164480484Y-78939955D01*
X164666187Y-78879617D01*
X164840164Y-78790971D01*
X164998132Y-78676201D01*
X165136201Y-78538132D01*
X165250971Y-78380164D01*
X165339617Y-78206187D01*
X165399955Y-78020484D01*
X165415691Y-77921125D01*
X165430500Y-77827634D01*
X165430500Y-77632365D01*
X165412730Y-77520174D01*
X165399955Y-77439516D01*
X165339617Y-77253813D01*
X165339617Y-77253812D01*
X165308919Y-77193565D01*
X165250971Y-77079836D01*
X165236307Y-77059653D01*
X165136206Y-76921874D01*
X165136202Y-76921869D01*
X164998130Y-76783797D01*
X164998125Y-76783793D01*
X164840167Y-76669031D01*
X164840166Y-76669030D01*
X164840164Y-76669029D01*
X164784426Y-76640629D01*
X164666187Y-76580382D01*
X164666184Y-76580381D01*
X164480485Y-76520045D01*
X164287634Y-76489500D01*
X164287629Y-76489500D01*
X164092371Y-76489500D01*
X164092366Y-76489500D01*
X163899514Y-76520045D01*
X163713815Y-76580381D01*
X163713812Y-76580382D01*
X163539832Y-76669031D01*
X163381874Y-76783793D01*
X163381869Y-76783797D01*
X163243797Y-76921869D01*
X163243793Y-76921874D01*
X163129031Y-77079832D01*
X163040382Y-77253812D01*
X163040381Y-77253815D01*
X162980045Y-77439514D01*
X162949500Y-77632365D01*
X120295843Y-77632365D01*
X120295843Y-72336848D01*
X120315528Y-72269809D01*
X120332162Y-72249167D01*
X120376574Y-72204755D01*
X120427869Y-72153460D01*
X120481768Y-72060104D01*
X120506926Y-72016529D01*
X120547849Y-71863802D01*
X120547849Y-71705687D01*
X120547849Y-70897682D01*
X121047349Y-70897682D01*
X121047349Y-71102317D01*
X121079358Y-71304417D01*
X121142593Y-71499031D01*
X121235490Y-71681350D01*
X121235496Y-71681359D01*
X121267872Y-71725921D01*
X121267873Y-71725922D01*
X121947349Y-71046446D01*
X121947349Y-71052661D01*
X121974608Y-71154394D01*
X122027269Y-71245606D01*
X122101743Y-71320080D01*
X122192955Y-71372741D01*
X122294688Y-71400000D01*
X122300902Y-71400000D01*
X121621425Y-72079474D01*
X121665999Y-72111859D01*
X121848317Y-72204755D01*
X122042931Y-72267990D01*
X122245032Y-72300000D01*
X122449666Y-72300000D01*
X122651766Y-72267990D01*
X122846380Y-72204755D01*
X123028698Y-72111859D01*
X123073270Y-72079474D01*
X123073270Y-72079473D01*
X122393796Y-71400000D01*
X122400010Y-71400000D01*
X122501743Y-71372741D01*
X122592955Y-71320080D01*
X122667429Y-71245606D01*
X122720090Y-71154394D01*
X122747349Y-71052661D01*
X122747349Y-71046447D01*
X123426823Y-71725921D01*
X123459208Y-71681349D01*
X123552104Y-71499031D01*
X123615339Y-71304417D01*
X123647349Y-71102317D01*
X123647349Y-70897692D01*
X123647347Y-70897672D01*
X123646196Y-70890408D01*
X133417500Y-70890408D01*
X133417500Y-71109591D01*
X133451788Y-71326078D01*
X133519521Y-71534539D01*
X133619025Y-71729825D01*
X133664301Y-71792143D01*
X134249469Y-71206975D01*
X134255548Y-71229661D01*
X134333882Y-71365338D01*
X134444662Y-71476118D01*
X134580339Y-71554452D01*
X134603023Y-71560530D01*
X134017854Y-72145697D01*
X134017855Y-72145698D01*
X134080166Y-72190970D01*
X134275460Y-72290478D01*
X134483921Y-72358211D01*
X134700409Y-72392500D01*
X134919591Y-72392500D01*
X135136078Y-72358211D01*
X135344539Y-72290478D01*
X135539829Y-72190972D01*
X135602143Y-72145697D01*
X135602144Y-72145697D01*
X135016976Y-71560530D01*
X135039661Y-71554452D01*
X135175338Y-71476118D01*
X135286118Y-71365338D01*
X135364452Y-71229661D01*
X135370530Y-71206976D01*
X135955697Y-71792144D01*
X135955697Y-71792143D01*
X136000972Y-71729829D01*
X136100478Y-71534539D01*
X136168211Y-71326078D01*
X136202500Y-71109591D01*
X136202500Y-70890408D01*
X136168211Y-70673921D01*
X136100478Y-70465460D01*
X136000970Y-70270166D01*
X135955698Y-70207855D01*
X135955697Y-70207854D01*
X135370529Y-70793022D01*
X135364452Y-70770339D01*
X135286118Y-70634662D01*
X135175338Y-70523882D01*
X135039661Y-70445548D01*
X135016976Y-70439469D01*
X135602143Y-69854301D01*
X135539825Y-69809025D01*
X135344539Y-69709521D01*
X135136078Y-69641788D01*
X134919591Y-69607500D01*
X134700409Y-69607500D01*
X134483921Y-69641788D01*
X134275460Y-69709521D01*
X134080168Y-69809028D01*
X134017855Y-69854300D01*
X134017855Y-69854301D01*
X134603023Y-70439469D01*
X134580339Y-70445548D01*
X134444662Y-70523882D01*
X134333882Y-70634662D01*
X134255548Y-70770339D01*
X134249469Y-70793023D01*
X133664301Y-70207855D01*
X133664300Y-70207855D01*
X133619028Y-70270168D01*
X133519521Y-70465460D01*
X133451788Y-70673921D01*
X133417500Y-70890408D01*
X123646196Y-70890408D01*
X123615339Y-70695582D01*
X123552104Y-70500968D01*
X123459208Y-70318650D01*
X123426823Y-70274077D01*
X123426823Y-70274076D01*
X122747349Y-70953551D01*
X122747349Y-70947339D01*
X122720090Y-70845606D01*
X122667429Y-70754394D01*
X122592955Y-70679920D01*
X122501743Y-70627259D01*
X122400010Y-70600000D01*
X122393795Y-70600000D01*
X123073270Y-69920525D01*
X123073270Y-69920522D01*
X123028708Y-69888147D01*
X123028699Y-69888141D01*
X122846380Y-69795244D01*
X122651766Y-69732009D01*
X122449666Y-69700000D01*
X122245032Y-69700000D01*
X122042931Y-69732009D01*
X121848317Y-69795244D01*
X121665993Y-69888143D01*
X121621426Y-69920523D01*
X121621426Y-69920524D01*
X122300903Y-70600000D01*
X122294688Y-70600000D01*
X122192955Y-70627259D01*
X122101743Y-70679920D01*
X122027269Y-70754394D01*
X121974608Y-70845606D01*
X121947349Y-70947339D01*
X121947349Y-70953553D01*
X121267873Y-70274077D01*
X121267872Y-70274077D01*
X121235492Y-70318644D01*
X121142593Y-70500968D01*
X121079358Y-70695582D01*
X121047349Y-70897682D01*
X120547849Y-70897682D01*
X120547849Y-70136199D01*
X120546667Y-70131785D01*
X120506926Y-69983471D01*
X120461332Y-69904500D01*
X120427869Y-69846540D01*
X120316065Y-69734736D01*
X120316064Y-69734735D01*
X120311734Y-69730405D01*
X120311723Y-69730395D01*
X120119683Y-69538355D01*
X120119681Y-69538352D01*
X120000810Y-69419481D01*
X120000809Y-69419480D01*
X119913997Y-69369360D01*
X119913997Y-69369359D01*
X119913993Y-69369358D01*
X119863878Y-69340423D01*
X119711150Y-69299499D01*
X119553036Y-69299499D01*
X119545440Y-69299499D01*
X119545424Y-69299500D01*
X118141662Y-69299500D01*
X117983547Y-69299500D01*
X117830820Y-69340423D01*
X117830819Y-69340423D01*
X117830817Y-69340424D01*
X117830814Y-69340425D01*
X117780701Y-69369359D01*
X117780700Y-69369360D01*
X117737294Y-69394420D01*
X117693890Y-69419479D01*
X117693887Y-69419481D01*
X117266830Y-69846538D01*
X117266828Y-69846541D01*
X117262348Y-69854301D01*
X117233366Y-69904500D01*
X117187772Y-69983471D01*
X117146848Y-70136199D01*
X117146848Y-70136201D01*
X117146848Y-70304302D01*
X117146849Y-70304315D01*
X117146849Y-104210679D01*
X117146848Y-104210697D01*
X117146848Y-104376403D01*
X117146847Y-104376403D01*
X117146848Y-104376406D01*
X117187772Y-104529134D01*
X117187773Y-104529135D01*
X117199811Y-104549988D01*
X117199814Y-104549991D01*
X117266826Y-104666061D01*
X117266830Y-104666066D01*
X117385698Y-104784934D01*
X117385704Y-104784939D01*
X117450681Y-104849916D01*
X117484166Y-104911239D01*
X117487000Y-104937597D01*
X117487000Y-105550001D01*
X117487001Y-105550019D01*
X117497500Y-105652796D01*
X117497501Y-105652799D01*
X117521592Y-105725499D01*
X117552686Y-105819334D01*
X117644788Y-105968656D01*
X117768844Y-106092712D01*
X117918166Y-106184814D01*
X118084703Y-106239999D01*
X118187491Y-106250500D01*
X118788000Y-106250499D01*
X118855039Y-106270183D01*
X118900794Y-106322987D01*
X118912000Y-106374499D01*
X118912000Y-106676000D01*
X118892315Y-106743039D01*
X118839511Y-106788794D01*
X118788000Y-106800000D01*
X118750000Y-106800000D01*
X118750000Y-107876000D01*
X118730315Y-107943039D01*
X118677511Y-107988794D01*
X118626000Y-108000000D01*
X118500000Y-108000000D01*
X118500000Y-108126000D01*
X118480315Y-108193039D01*
X118427511Y-108238794D01*
X118376000Y-108250000D01*
X117487501Y-108250000D01*
X117487501Y-108499986D01*
X117497994Y-108602697D01*
X117553141Y-108769119D01*
X117553143Y-108769124D01*
X117645184Y-108918345D01*
X117769154Y-109042315D01*
X117918488Y-109134425D01*
X117928356Y-109145397D01*
X117941290Y-109152501D01*
X117951250Y-109170850D01*
X117965212Y-109186373D01*
X117967582Y-109200938D01*
X117974622Y-109213907D01*
X117973081Y-109234726D01*
X117976435Y-109255336D01*
X117970554Y-109268870D01*
X117969465Y-109283586D01*
X117956911Y-109300269D01*
X117948591Y-109319418D01*
X117935596Y-109328595D01*
X117927454Y-109339416D01*
X117904616Y-109350474D01*
X117896435Y-109356253D01*
X117891033Y-109358252D01*
X117770971Y-109390423D01*
X117720851Y-109419360D01*
X117679218Y-109443396D01*
X117634041Y-109469479D01*
X117634038Y-109469481D01*
X117206981Y-109896538D01*
X117206975Y-109896546D01*
X117163232Y-109972313D01*
X117163232Y-109972314D01*
X117127923Y-110033471D01*
X117086999Y-110186199D01*
X117086999Y-110186201D01*
X117086999Y-110354302D01*
X117087000Y-110354315D01*
X117087000Y-111548074D01*
X117086999Y-111548092D01*
X117086999Y-111713798D01*
X117086998Y-111713798D01*
X117127923Y-111866529D01*
X117156858Y-111916644D01*
X117156859Y-111916648D01*
X117156860Y-111916648D01*
X117206979Y-112003458D01*
X117206981Y-112003461D01*
X117325849Y-112122329D01*
X117325855Y-112122334D01*
X117517895Y-112314374D01*
X117517905Y-112314385D01*
X117522235Y-112318715D01*
X117522236Y-112318716D01*
X117634040Y-112430520D01*
X117720851Y-112480639D01*
X117720853Y-112480641D01*
X117760712Y-112503654D01*
X117770971Y-112509577D01*
X117923698Y-112550500D01*
X117923699Y-112550500D01*
X119238331Y-112550500D01*
X119238347Y-112550501D01*
X119245943Y-112550501D01*
X119404054Y-112550501D01*
X119404057Y-112550501D01*
X119556785Y-112509577D01*
X119556786Y-112509576D01*
X119564636Y-112507473D01*
X119565263Y-112509813D01*
X119622505Y-112503654D01*
X119684987Y-112534923D01*
X119720645Y-112595009D01*
X119724500Y-112625686D01*
X119724500Y-116238330D01*
X119724499Y-116238348D01*
X119724499Y-116404054D01*
X119724498Y-116404054D01*
X119765423Y-116556785D01*
X119792541Y-116603753D01*
X119792542Y-116603757D01*
X119792543Y-116603757D01*
X119808435Y-116631284D01*
X119844479Y-116693714D01*
X119844481Y-116693717D01*
X119963349Y-116812585D01*
X119963355Y-116812590D01*
X125063083Y-121912318D01*
X125096568Y-121973641D01*
X125091584Y-122043333D01*
X125063083Y-122087680D01*
X124631286Y-122519478D01*
X124519481Y-122631282D01*
X124519475Y-122631290D01*
X124475314Y-122707781D01*
X124475314Y-122707782D01*
X124440423Y-122768215D01*
X124399499Y-122920943D01*
X124399499Y-122920945D01*
X124399499Y-123089046D01*
X124399500Y-123089059D01*
X124399500Y-125443531D01*
X124379815Y-125510570D01*
X124327011Y-125556325D01*
X124274546Y-125567527D01*
X115623046Y-125500946D01*
X115556160Y-125480746D01*
X115510813Y-125427592D01*
X115500000Y-125376950D01*
X115500000Y-107500013D01*
X117487500Y-107500013D01*
X117487500Y-107750000D01*
X118250000Y-107750000D01*
X118250000Y-106800000D01*
X118249999Y-106799999D01*
X118187528Y-106800000D01*
X118187511Y-106800001D01*
X118084802Y-106810494D01*
X117918380Y-106865641D01*
X117918375Y-106865643D01*
X117769154Y-106957684D01*
X117645184Y-107081654D01*
X117553143Y-107230875D01*
X117553141Y-107230880D01*
X117497994Y-107397302D01*
X117497993Y-107397309D01*
X117487500Y-107500013D01*
X115500000Y-107500013D01*
X115500000Y-59624000D01*
X115519685Y-59556961D01*
X115572489Y-59511206D01*
X115624000Y-59500000D01*
X180375944Y-59500000D01*
X180442983Y-59519685D01*
G37*
%TD.AperFunction*%
%TA.AperFunction,Conductor*%
G36*
X127643834Y-106672914D02*
G01*
X127699767Y-106714786D01*
X127724184Y-106780250D01*
X127724500Y-106789096D01*
X127724500Y-106936287D01*
X127727889Y-106957684D01*
X127747474Y-107081342D01*
X127757754Y-107146243D01*
X127816489Y-107327011D01*
X127823444Y-107348414D01*
X127919951Y-107537820D01*
X128044890Y-107709786D01*
X128195213Y-107860109D01*
X128367182Y-107985050D01*
X128375946Y-107989516D01*
X128426742Y-108037491D01*
X128443536Y-108105312D01*
X128420998Y-108171447D01*
X128375946Y-108210484D01*
X128367182Y-108214949D01*
X128195213Y-108339890D01*
X128044890Y-108490213D01*
X127919951Y-108662179D01*
X127823444Y-108851585D01*
X127757753Y-109053760D01*
X127729091Y-109234726D01*
X127724500Y-109263713D01*
X127724500Y-109476287D01*
X127757754Y-109686243D01*
X127799650Y-109815186D01*
X127823444Y-109888414D01*
X127919951Y-110077820D01*
X128044890Y-110249786D01*
X128195213Y-110400109D01*
X128367182Y-110525050D01*
X128375946Y-110529516D01*
X128426742Y-110577491D01*
X128443536Y-110645312D01*
X128420998Y-110711447D01*
X128375946Y-110750484D01*
X128367182Y-110754949D01*
X128195213Y-110879890D01*
X128044890Y-111030213D01*
X127919951Y-111202179D01*
X127823444Y-111391585D01*
X127757753Y-111593760D01*
X127756291Y-111602993D01*
X127724500Y-111803713D01*
X127724500Y-112016287D01*
X127733530Y-112073300D01*
X127757735Y-112226127D01*
X127757754Y-112226243D01*
X127787800Y-112318716D01*
X127823444Y-112428414D01*
X127919951Y-112617820D01*
X128044890Y-112789786D01*
X128195213Y-112940109D01*
X128367182Y-113065050D01*
X128375946Y-113069516D01*
X128426742Y-113117491D01*
X128443536Y-113185312D01*
X128420998Y-113251447D01*
X128375946Y-113290484D01*
X128367182Y-113294949D01*
X128195213Y-113419890D01*
X128044890Y-113570213D01*
X127919951Y-113742179D01*
X127823444Y-113931585D01*
X127757753Y-114133760D01*
X127724500Y-114343713D01*
X127724500Y-114556286D01*
X127757735Y-114766127D01*
X127757754Y-114766243D01*
X127783644Y-114845925D01*
X127823444Y-114968414D01*
X127919951Y-115157820D01*
X128044890Y-115329786D01*
X128195213Y-115480109D01*
X128367179Y-115605048D01*
X128367181Y-115605049D01*
X128367184Y-115605051D01*
X128376493Y-115609794D01*
X128427290Y-115657766D01*
X128444087Y-115725587D01*
X128421552Y-115791722D01*
X128376505Y-115830760D01*
X128367446Y-115835376D01*
X128367440Y-115835380D01*
X128313282Y-115874727D01*
X128313282Y-115874728D01*
X128945591Y-116507037D01*
X128882007Y-116524075D01*
X128767993Y-116589901D01*
X128674901Y-116682993D01*
X128609075Y-116797007D01*
X128592037Y-116860591D01*
X127959728Y-116228282D01*
X127959727Y-116228282D01*
X127920380Y-116282439D01*
X127823904Y-116471782D01*
X127758242Y-116673869D01*
X127758242Y-116673872D01*
X127725000Y-116883753D01*
X127725000Y-117096246D01*
X127758242Y-117306127D01*
X127758242Y-117306130D01*
X127823904Y-117508217D01*
X127920375Y-117697550D01*
X127959728Y-117751716D01*
X128592037Y-117119408D01*
X128609075Y-117182993D01*
X128674901Y-117297007D01*
X128767993Y-117390099D01*
X128882007Y-117455925D01*
X128945590Y-117472962D01*
X128313282Y-118105269D01*
X128313282Y-118105270D01*
X128367452Y-118144626D01*
X128367451Y-118144626D01*
X128376495Y-118149234D01*
X128427292Y-118197208D01*
X128444087Y-118265029D01*
X128421550Y-118331164D01*
X128376499Y-118370202D01*
X128367182Y-118374949D01*
X128195213Y-118499890D01*
X128044890Y-118650213D01*
X127919951Y-118822179D01*
X127823444Y-119011585D01*
X127757753Y-119213760D01*
X127724500Y-119423713D01*
X127724500Y-119636286D01*
X127757753Y-119846239D01*
X127823444Y-120048414D01*
X127919951Y-120237820D01*
X128044890Y-120409786D01*
X128195213Y-120560109D01*
X128367182Y-120685050D01*
X128375946Y-120689516D01*
X128426742Y-120737491D01*
X128443536Y-120805312D01*
X128420998Y-120871447D01*
X128375946Y-120910484D01*
X128367182Y-120914949D01*
X128195213Y-121039890D01*
X128044890Y-121190213D01*
X127919948Y-121362184D01*
X127919947Y-121362185D01*
X127899765Y-121401795D01*
X127851791Y-121452591D01*
X127789281Y-121469500D01*
X126370097Y-121469500D01*
X126303058Y-121449815D01*
X126282416Y-121433181D01*
X120961819Y-116112584D01*
X120928334Y-116051261D01*
X120925500Y-116024903D01*
X120925500Y-112142507D01*
X120945185Y-112075468D01*
X120984403Y-112036968D01*
X121056156Y-111992712D01*
X121180212Y-111868656D01*
X121272314Y-111719334D01*
X121327499Y-111552797D01*
X121338000Y-111450009D01*
X121337999Y-110449992D01*
X121332903Y-110400109D01*
X121327499Y-110347203D01*
X121327498Y-110347200D01*
X121295218Y-110249786D01*
X121272314Y-110180666D01*
X121180212Y-110031344D01*
X121056156Y-109907288D01*
X120906834Y-109815186D01*
X120780104Y-109773191D01*
X120722661Y-109733420D01*
X120695838Y-109668905D01*
X120708153Y-109600129D01*
X120731424Y-109567811D01*
X120805520Y-109493716D01*
X120884577Y-109356784D01*
X120925501Y-109204057D01*
X120925501Y-109192507D01*
X120945186Y-109125468D01*
X120984405Y-109086968D01*
X121056156Y-109042712D01*
X121180212Y-108918656D01*
X121272314Y-108769334D01*
X121300095Y-108685495D01*
X121339868Y-108628051D01*
X121404384Y-108601228D01*
X121417801Y-108600500D01*
X125278331Y-108600500D01*
X125278347Y-108600501D01*
X125285943Y-108600501D01*
X125444054Y-108600501D01*
X125444057Y-108600501D01*
X125596785Y-108559577D01*
X125657541Y-108524499D01*
X125733716Y-108480520D01*
X125845520Y-108368716D01*
X125845520Y-108368714D01*
X125855724Y-108358511D01*
X125855728Y-108358506D01*
X127512819Y-106701415D01*
X127574142Y-106667930D01*
X127643834Y-106672914D01*
G37*
%TD.AperFunction*%
%TA.AperFunction,Conductor*%
G36*
X179132315Y-97362665D02*
G01*
X179242299Y-97398402D01*
X179413389Y-97425500D01*
X179413390Y-97425500D01*
X179586609Y-97425500D01*
X179586611Y-97425500D01*
X179656103Y-97414493D01*
X179725395Y-97423447D01*
X179778847Y-97468443D01*
X179799487Y-97535194D01*
X179799500Y-97536966D01*
X179799500Y-111865587D01*
X179779815Y-111932626D01*
X179763181Y-111953268D01*
X175433269Y-116283181D01*
X175371946Y-116316666D01*
X175345588Y-116319500D01*
X166785719Y-116319500D01*
X166718680Y-116299815D01*
X166675235Y-116251795D01*
X166655052Y-116212185D01*
X166655051Y-116212184D01*
X166530109Y-116040213D01*
X166416181Y-115926285D01*
X166382696Y-115864962D01*
X166387680Y-115795270D01*
X166429552Y-115739337D01*
X166460529Y-115722422D01*
X166592086Y-115673354D01*
X166592093Y-115673350D01*
X166707187Y-115587190D01*
X166707190Y-115587187D01*
X166793350Y-115472093D01*
X166793354Y-115472086D01*
X166843596Y-115337379D01*
X166843598Y-115337372D01*
X166849999Y-115277844D01*
X166850000Y-115277827D01*
X166850000Y-114630000D01*
X165933012Y-114630000D01*
X165965925Y-114572993D01*
X166000000Y-114445826D01*
X166000000Y-114314174D01*
X165965925Y-114187007D01*
X165933012Y-114130000D01*
X166850000Y-114130000D01*
X166850000Y-113482172D01*
X166849999Y-113482155D01*
X166843598Y-113422627D01*
X166843596Y-113422620D01*
X166793354Y-113287913D01*
X166793350Y-113287906D01*
X166707190Y-113172812D01*
X166707187Y-113172809D01*
X166592093Y-113086649D01*
X166592086Y-113086645D01*
X166457379Y-113036403D01*
X166457372Y-113036401D01*
X166397844Y-113030000D01*
X165750000Y-113030000D01*
X165750000Y-113946988D01*
X165692993Y-113914075D01*
X165565826Y-113880000D01*
X165434174Y-113880000D01*
X165307007Y-113914075D01*
X165250000Y-113946988D01*
X165250000Y-113030000D01*
X164602155Y-113030000D01*
X164542627Y-113036401D01*
X164542620Y-113036403D01*
X164407913Y-113086645D01*
X164407906Y-113086649D01*
X164292812Y-113172809D01*
X164292809Y-113172812D01*
X164206649Y-113287906D01*
X164206645Y-113287913D01*
X164156403Y-113422620D01*
X164156401Y-113422627D01*
X164150000Y-113482155D01*
X164150000Y-114130000D01*
X165066988Y-114130000D01*
X165034075Y-114187007D01*
X165000000Y-114314174D01*
X165000000Y-114445826D01*
X165034075Y-114572993D01*
X165066988Y-114630000D01*
X164150000Y-114630000D01*
X164150000Y-115277844D01*
X164156401Y-115337372D01*
X164156403Y-115337379D01*
X164206645Y-115472086D01*
X164206649Y-115472093D01*
X164292809Y-115587187D01*
X164292812Y-115587190D01*
X164407906Y-115673350D01*
X164407913Y-115673354D01*
X164539470Y-115722422D01*
X164595404Y-115764293D01*
X164619821Y-115829758D01*
X164604969Y-115898031D01*
X164583819Y-115926285D01*
X164469889Y-116040215D01*
X164344951Y-116212179D01*
X164248444Y-116401585D01*
X164248443Y-116401587D01*
X164248443Y-116401588D01*
X164182754Y-116603757D01*
X164149500Y-116813713D01*
X164149500Y-117026287D01*
X164182754Y-117236243D01*
X164205498Y-117306243D01*
X164248444Y-117438414D01*
X164344951Y-117627820D01*
X164469890Y-117799786D01*
X164620213Y-117950109D01*
X164792182Y-118075050D01*
X164800946Y-118079516D01*
X164851742Y-118127491D01*
X164868536Y-118195312D01*
X164845998Y-118261447D01*
X164800946Y-118300484D01*
X164792182Y-118304949D01*
X164620213Y-118429890D01*
X164469890Y-118580213D01*
X164344951Y-118752180D01*
X164289099Y-118861795D01*
X164241124Y-118912591D01*
X164178614Y-118929500D01*
X145600719Y-118929500D01*
X145533680Y-118909815D01*
X145490235Y-118861795D01*
X145470052Y-118822185D01*
X145470051Y-118822184D01*
X145345109Y-118650213D01*
X145194786Y-118499890D01*
X145022820Y-118374951D01*
X145022115Y-118374591D01*
X145014054Y-118370485D01*
X144963259Y-118322512D01*
X144946463Y-118254692D01*
X144968999Y-118188556D01*
X145014054Y-118149515D01*
X145022816Y-118145051D01*
X145046985Y-118127491D01*
X145194786Y-118020109D01*
X145194788Y-118020106D01*
X145194792Y-118020104D01*
X145345104Y-117869792D01*
X145345106Y-117869788D01*
X145345109Y-117869786D01*
X145470048Y-117697820D01*
X145470047Y-117697820D01*
X145470051Y-117697816D01*
X145566557Y-117508412D01*
X145632246Y-117306243D01*
X145665500Y-117096287D01*
X145665500Y-116883713D01*
X145632246Y-116673757D01*
X145566557Y-116471588D01*
X145470051Y-116282184D01*
X145470049Y-116282181D01*
X145470048Y-116282179D01*
X145345109Y-116110213D01*
X145194786Y-115959890D01*
X145022817Y-115834949D01*
X145013504Y-115830204D01*
X144962707Y-115782230D01*
X144945912Y-115714409D01*
X144968449Y-115648274D01*
X145013507Y-115609232D01*
X145022555Y-115604622D01*
X145076716Y-115565270D01*
X145076717Y-115565270D01*
X144444408Y-114932962D01*
X144507993Y-114915925D01*
X144622007Y-114850099D01*
X144715099Y-114757007D01*
X144780925Y-114642993D01*
X144797962Y-114579408D01*
X145430270Y-115211717D01*
X145430270Y-115211716D01*
X145469622Y-115157554D01*
X145566095Y-114968217D01*
X145631757Y-114766130D01*
X145631757Y-114766127D01*
X145665000Y-114556246D01*
X145665000Y-114343753D01*
X145631757Y-114133872D01*
X145631757Y-114133869D01*
X145566095Y-113931782D01*
X145469624Y-113742449D01*
X145430270Y-113688282D01*
X145430269Y-113688282D01*
X144797962Y-114320590D01*
X144780925Y-114257007D01*
X144715099Y-114142993D01*
X144622007Y-114049901D01*
X144507993Y-113984075D01*
X144444409Y-113967037D01*
X145020275Y-113391170D01*
X145076716Y-113334728D01*
X145022550Y-113295375D01*
X145012954Y-113290486D01*
X144962157Y-113242512D01*
X144945361Y-113174692D01*
X144967897Y-113108556D01*
X145012954Y-113069514D01*
X145022554Y-113064622D01*
X145076716Y-113025270D01*
X145076717Y-113025270D01*
X144444408Y-112392962D01*
X144507993Y-112375925D01*
X144622007Y-112310099D01*
X144715099Y-112217007D01*
X144780925Y-112102993D01*
X144797962Y-112039408D01*
X145430270Y-112671717D01*
X145430270Y-112671716D01*
X145469622Y-112617554D01*
X145566095Y-112428217D01*
X145631757Y-112226130D01*
X145631757Y-112226127D01*
X145665000Y-112016246D01*
X145665000Y-111803753D01*
X145631757Y-111593872D01*
X145631757Y-111593869D01*
X145566095Y-111391782D01*
X145469624Y-111202449D01*
X145430270Y-111148282D01*
X145430269Y-111148282D01*
X144797962Y-111780590D01*
X144780925Y-111717007D01*
X144715099Y-111602993D01*
X144622007Y-111509901D01*
X144507993Y-111444075D01*
X144444409Y-111427037D01*
X145076716Y-110794728D01*
X145022547Y-110755373D01*
X145022547Y-110755372D01*
X145013500Y-110750763D01*
X144962706Y-110702788D01*
X144945912Y-110634966D01*
X144968451Y-110568832D01*
X145013508Y-110529793D01*
X145022816Y-110525051D01*
X145102007Y-110467515D01*
X145194786Y-110400109D01*
X145194788Y-110400106D01*
X145194792Y-110400104D01*
X145345104Y-110249792D01*
X145345106Y-110249788D01*
X145345109Y-110249786D01*
X145470048Y-110077820D01*
X145470047Y-110077820D01*
X145470051Y-110077816D01*
X145566557Y-109888412D01*
X145632246Y-109686243D01*
X145665500Y-109476287D01*
X145665500Y-109263713D01*
X145632246Y-109053757D01*
X145566557Y-108851588D01*
X145470051Y-108662184D01*
X145470049Y-108662181D01*
X145470048Y-108662179D01*
X145345109Y-108490213D01*
X145194786Y-108339890D01*
X145022820Y-108214951D01*
X145022115Y-108214591D01*
X145014054Y-108210485D01*
X144963259Y-108162512D01*
X144946463Y-108094692D01*
X144968999Y-108028556D01*
X145014054Y-107989515D01*
X145022816Y-107985051D01*
X145080641Y-107943039D01*
X145194786Y-107860109D01*
X145194788Y-107860106D01*
X145194792Y-107860104D01*
X145345104Y-107709792D01*
X145345106Y-107709788D01*
X145345109Y-107709786D01*
X145470048Y-107537820D01*
X145470047Y-107537820D01*
X145470051Y-107537816D01*
X145566557Y-107348412D01*
X145632246Y-107146243D01*
X145665500Y-106936287D01*
X145665500Y-106723713D01*
X145632246Y-106513757D01*
X145566557Y-106311588D01*
X145470051Y-106122184D01*
X145470049Y-106122181D01*
X145470048Y-106122179D01*
X145345109Y-105950213D01*
X145194786Y-105799890D01*
X145022820Y-105674951D01*
X145022115Y-105674591D01*
X145014054Y-105670485D01*
X144963259Y-105622512D01*
X144946463Y-105554692D01*
X144968999Y-105488556D01*
X145014054Y-105449515D01*
X145022816Y-105445051D01*
X145093601Y-105393623D01*
X145194786Y-105320109D01*
X145194788Y-105320106D01*
X145194792Y-105320104D01*
X145345104Y-105169792D01*
X145345106Y-105169788D01*
X145345109Y-105169786D01*
X145470048Y-104997820D01*
X145470047Y-104997820D01*
X145470051Y-104997816D01*
X145566557Y-104808412D01*
X145632246Y-104606243D01*
X145665500Y-104396287D01*
X145665500Y-104183713D01*
X145632246Y-103973757D01*
X145609195Y-103902816D01*
X145607201Y-103832977D01*
X145643281Y-103773144D01*
X145705982Y-103742316D01*
X145727127Y-103740500D01*
X146939903Y-103740500D01*
X147006942Y-103760185D01*
X147027584Y-103776819D01*
X147563181Y-104312416D01*
X147596666Y-104373739D01*
X147599500Y-104400097D01*
X147599500Y-105025001D01*
X147599501Y-105025019D01*
X147610000Y-105127796D01*
X147610001Y-105127799D01*
X147665115Y-105294119D01*
X147665186Y-105294334D01*
X147757288Y-105443656D01*
X147881344Y-105567712D01*
X148030666Y-105659814D01*
X148197203Y-105714999D01*
X148299991Y-105725500D01*
X148900008Y-105725499D01*
X148900016Y-105725498D01*
X148900019Y-105725498D01*
X148956302Y-105719748D01*
X149002797Y-105714999D01*
X149169334Y-105659814D01*
X149318656Y-105567712D01*
X149442712Y-105443656D01*
X149444752Y-105440347D01*
X149446745Y-105438555D01*
X149447193Y-105437989D01*
X149447289Y-105438065D01*
X149496694Y-105393623D01*
X149565656Y-105382395D01*
X149629740Y-105410234D01*
X149655829Y-105440339D01*
X149657681Y-105443341D01*
X149657683Y-105443344D01*
X149781654Y-105567315D01*
X149930875Y-105659356D01*
X149930880Y-105659358D01*
X150097302Y-105714505D01*
X150097309Y-105714506D01*
X150200019Y-105724999D01*
X150750000Y-105724999D01*
X150799972Y-105724999D01*
X150799986Y-105724998D01*
X150902697Y-105714505D01*
X151069119Y-105659358D01*
X151069124Y-105659356D01*
X151218345Y-105567315D01*
X151342315Y-105443345D01*
X151434356Y-105294124D01*
X151434358Y-105294119D01*
X151489505Y-105127697D01*
X151489506Y-105127690D01*
X151499999Y-105024986D01*
X151500000Y-105024973D01*
X151500000Y-104750000D01*
X150750000Y-104750000D01*
X150750000Y-105724999D01*
X150200019Y-105724999D01*
X150249999Y-105724998D01*
X150250000Y-105724998D01*
X150250000Y-104250000D01*
X150750000Y-104250000D01*
X151499999Y-104250000D01*
X151499999Y-103975028D01*
X151499998Y-103975013D01*
X151489505Y-103872302D01*
X151434358Y-103705880D01*
X151434356Y-103705875D01*
X151342315Y-103556654D01*
X151218345Y-103432684D01*
X151069124Y-103340643D01*
X151069119Y-103340641D01*
X150902697Y-103285494D01*
X150902690Y-103285493D01*
X150799986Y-103275000D01*
X150750000Y-103275000D01*
X150750000Y-104250000D01*
X150250000Y-104250000D01*
X150250000Y-103275000D01*
X150249999Y-103274999D01*
X150200029Y-103275000D01*
X150200011Y-103275001D01*
X150097302Y-103285494D01*
X149930880Y-103340641D01*
X149930875Y-103340643D01*
X149781654Y-103432684D01*
X149657683Y-103556655D01*
X149657679Y-103556660D01*
X149655826Y-103559665D01*
X149654018Y-103561290D01*
X149653202Y-103562323D01*
X149653025Y-103562183D01*
X149603874Y-103606385D01*
X149534911Y-103617601D01*
X149470831Y-103589752D01*
X149444753Y-103559653D01*
X149444737Y-103559628D01*
X149442712Y-103556344D01*
X149318656Y-103432288D01*
X149169334Y-103340186D01*
X149002797Y-103285001D01*
X149002795Y-103285000D01*
X148900010Y-103274500D01*
X148299999Y-103274500D01*
X148299983Y-103274501D01*
X148289413Y-103275581D01*
X148220721Y-103262807D01*
X148189138Y-103239903D01*
X147727590Y-102778355D01*
X147727588Y-102778352D01*
X147608717Y-102659481D01*
X147608716Y-102659480D01*
X147521904Y-102609360D01*
X147521904Y-102609359D01*
X147521900Y-102609358D01*
X147474319Y-102581886D01*
X147426104Y-102531318D01*
X147412883Y-102462711D01*
X147438852Y-102397847D01*
X147495767Y-102357319D01*
X147536321Y-102350500D01*
X173713331Y-102350500D01*
X173713347Y-102350501D01*
X173720943Y-102350501D01*
X173879054Y-102350501D01*
X173879057Y-102350501D01*
X174031785Y-102309577D01*
X174081904Y-102280639D01*
X174168716Y-102230520D01*
X174280520Y-102118716D01*
X174280520Y-102118714D01*
X174290728Y-102108507D01*
X174290730Y-102108504D01*
X179006319Y-97392914D01*
X179019674Y-97385622D01*
X179029965Y-97374410D01*
X179049715Y-97369218D01*
X179067640Y-97359431D01*
X179083864Y-97360242D01*
X179097539Y-97356648D01*
X179132315Y-97362665D01*
G37*
%TD.AperFunction*%
%TA.AperFunction,Conductor*%
G36*
X176354734Y-92210185D02*
G01*
X176375376Y-92226819D01*
X178854788Y-94706231D01*
X178888273Y-94767554D01*
X178883289Y-94837246D01*
X178841417Y-94893179D01*
X178839994Y-94894229D01*
X178783072Y-94935585D01*
X178660585Y-95058072D01*
X178600007Y-95141450D01*
X178544677Y-95184115D01*
X178475063Y-95190093D01*
X178413269Y-95157486D01*
X178399371Y-95141447D01*
X178339036Y-95058401D01*
X178216602Y-94935967D01*
X178076524Y-94834195D01*
X177922257Y-94755591D01*
X177757589Y-94702087D01*
X177757581Y-94702085D01*
X177750000Y-94700884D01*
X177750000Y-95769670D01*
X177730255Y-95749925D01*
X177644745Y-95700556D01*
X177549370Y-95675000D01*
X177450630Y-95675000D01*
X177355255Y-95700556D01*
X177269745Y-95749925D01*
X177250000Y-95769670D01*
X177250000Y-94700884D01*
X177249999Y-94700884D01*
X177242418Y-94702085D01*
X177242410Y-94702087D01*
X177077742Y-94755591D01*
X176923475Y-94834195D01*
X176783397Y-94935967D01*
X176660967Y-95058397D01*
X176559195Y-95198475D01*
X176480591Y-95352742D01*
X176427085Y-95517415D01*
X176400000Y-95688428D01*
X176400000Y-95800000D01*
X177219670Y-95800000D01*
X177199925Y-95819745D01*
X177150556Y-95905255D01*
X177125000Y-96000630D01*
X177125000Y-96099370D01*
X177150556Y-96194745D01*
X177199925Y-96280255D01*
X177219670Y-96300000D01*
X176400000Y-96300000D01*
X176400000Y-96411571D01*
X176427085Y-96582584D01*
X176480591Y-96747257D01*
X176559195Y-96901524D01*
X176660967Y-97041602D01*
X176783397Y-97164032D01*
X176923475Y-97265804D01*
X177077744Y-97344408D01*
X177095583Y-97350205D01*
X177153259Y-97389643D01*
X177180457Y-97454001D01*
X177168542Y-97522848D01*
X177144946Y-97555817D01*
X173587584Y-101113181D01*
X173526261Y-101146666D01*
X173499903Y-101149500D01*
X145600719Y-101149500D01*
X145533680Y-101129815D01*
X145490235Y-101081795D01*
X145470052Y-101042185D01*
X145470051Y-101042184D01*
X145345109Y-100870213D01*
X145194786Y-100719890D01*
X145022820Y-100594951D01*
X145022115Y-100594591D01*
X145014054Y-100590485D01*
X144963259Y-100542512D01*
X144946463Y-100474692D01*
X144968999Y-100408556D01*
X145014054Y-100369515D01*
X145022816Y-100365051D01*
X145044789Y-100349086D01*
X145194786Y-100240109D01*
X145194788Y-100240106D01*
X145194792Y-100240104D01*
X145345104Y-100089792D01*
X145345106Y-100089788D01*
X145345109Y-100089786D01*
X145470048Y-99917820D01*
X145470047Y-99917820D01*
X145470051Y-99917816D01*
X145566557Y-99728412D01*
X145632246Y-99526243D01*
X145665500Y-99316287D01*
X145665500Y-99103713D01*
X145632246Y-98893757D01*
X145566557Y-98691588D01*
X145470051Y-98502184D01*
X145470049Y-98502181D01*
X145470048Y-98502179D01*
X145345109Y-98330213D01*
X145194786Y-98179890D01*
X145022820Y-98054951D01*
X145022115Y-98054591D01*
X145014054Y-98050485D01*
X144963259Y-98002512D01*
X144946463Y-97934692D01*
X144968999Y-97868556D01*
X145014054Y-97829515D01*
X145022816Y-97825051D01*
X145044789Y-97809086D01*
X145194786Y-97700109D01*
X145194788Y-97700106D01*
X145194792Y-97700104D01*
X145345104Y-97549792D01*
X145345106Y-97549788D01*
X145345109Y-97549786D01*
X145454086Y-97399789D01*
X145470051Y-97377816D01*
X145566557Y-97188412D01*
X145632246Y-96986243D01*
X145665500Y-96776287D01*
X145665500Y-96563713D01*
X145632246Y-96353757D01*
X145566557Y-96151588D01*
X145470051Y-95962184D01*
X145470049Y-95962181D01*
X145470048Y-95962179D01*
X145345109Y-95790213D01*
X145194786Y-95639890D01*
X145022820Y-95514951D01*
X145022115Y-95514591D01*
X145014054Y-95510485D01*
X144963259Y-95462512D01*
X144946463Y-95394692D01*
X144968999Y-95328556D01*
X145014054Y-95289515D01*
X145022816Y-95285051D01*
X145044789Y-95269086D01*
X145194786Y-95160109D01*
X145194788Y-95160106D01*
X145194792Y-95160104D01*
X145345104Y-95009792D01*
X145345106Y-95009788D01*
X145345109Y-95009786D01*
X145470048Y-94837820D01*
X145470047Y-94837820D01*
X145470051Y-94837816D01*
X145566557Y-94648412D01*
X145632246Y-94446243D01*
X145665500Y-94236287D01*
X145665500Y-94023713D01*
X145632246Y-93813757D01*
X145566557Y-93611588D01*
X145470051Y-93422184D01*
X145470049Y-93422181D01*
X145470048Y-93422179D01*
X145345109Y-93250213D01*
X145194786Y-93099890D01*
X145022820Y-92974951D01*
X145022115Y-92974591D01*
X145014054Y-92970485D01*
X144963259Y-92922512D01*
X144946463Y-92854692D01*
X144968999Y-92788556D01*
X145014054Y-92749515D01*
X145022816Y-92745051D01*
X145044789Y-92729086D01*
X145194786Y-92620109D01*
X145194788Y-92620106D01*
X145194792Y-92620104D01*
X145345104Y-92469792D01*
X145345106Y-92469788D01*
X145345109Y-92469786D01*
X145403661Y-92389193D01*
X145470051Y-92297816D01*
X145470349Y-92297230D01*
X145490235Y-92258205D01*
X145538209Y-92207409D01*
X145600719Y-92190500D01*
X176287695Y-92190500D01*
X176354734Y-92210185D01*
G37*
%TD.AperFunction*%
%TD*%
M02*
