%TF.GenerationSoftware,KiCad,Pcbnew,10.0.3*%
%TF.CreationDate,2026-06-16T14:38:08-05:00*%
%TF.ProjectId,Freezer_Monitor,46726565-7a65-4725-9f4d-6f6e69746f72,rev?*%
%TF.SameCoordinates,Original*%
%TF.FileFunction,Soldermask,Bot*%
%TF.FilePolarity,Negative*%
%FSLAX46Y46*%
G04 Gerber Fmt 4.6, Leading zero omitted, Abs format (unit mm)*
G04 Created by KiCad (PCBNEW 10.0.3) date 2026-06-16 14:38:08*
%MOMM*%
%LPD*%
G01*
G04 APERTURE LIST*
G04 Aperture macros list*
%AMRoundRect*
0 Rectangle with rounded corners*
0 $1 Rounding radius*
0 $2 $3 $4 $5 $6 $7 $8 $9 X,Y pos of 4 corners*
0 Add a 4 corners polygon primitive as box body*
4,1,4,$2,$3,$4,$5,$6,$7,$8,$9,$2,$3,0*
0 Add four circle primitives for the rounded corners*
1,1,$1+$1,$2,$3*
1,1,$1+$1,$4,$5*
1,1,$1+$1,$6,$7*
1,1,$1+$1,$8,$9*
0 Add four rect primitives between the rounded corners*
20,1,$1+$1,$2,$3,$4,$5,0*
20,1,$1+$1,$4,$5,$6,$7,0*
20,1,$1+$1,$6,$7,$8,$9,0*
20,1,$1+$1,$8,$9,$2,$3,0*%
G04 Aperture macros list end*
%ADD10R,1.700000X1.700000*%
%ADD11C,1.700000*%
%ADD12O,1.200000X1.750000*%
%ADD13RoundRect,0.250000X0.350000X0.625000X-0.350000X0.625000X-0.350000X-0.625000X0.350000X-0.625000X0*%
%ADD14RoundRect,0.250000X-0.550000X-0.550000X0.550000X-0.550000X0.550000X0.550000X-0.550000X0.550000X0*%
%ADD15C,1.600000*%
%ADD16C,1.989000*%
%ADD17C,1.980000*%
G04 APERTURE END LIST*
D10*
%TO.C,JP1*%
X180470000Y-71030000D03*
D11*
X177930000Y-71030000D03*
%TD*%
D12*
%TO.C,J1*%
X177500000Y-96050000D03*
X179500000Y-96050000D03*
D13*
X181500000Y-96050000D03*
%TD*%
D14*
%TO.C,C1*%
X118847349Y-71000000D03*
D15*
X122347349Y-71000000D03*
%TD*%
D10*
%TO.C,J2*%
X165500000Y-114380000D03*
D11*
X165500000Y-116920000D03*
X165500000Y-119460000D03*
X165500000Y-122000000D03*
%TD*%
D16*
%TO.C,BT1*%
X164190000Y-71000000D03*
X134810000Y-71000000D03*
D17*
X164190000Y-77730000D03*
%TD*%
D11*
%TO.C,U1*%
X129075000Y-91590000D03*
X129075000Y-94130000D03*
X129075000Y-96670000D03*
X129075000Y-99210000D03*
X129075000Y-101750000D03*
X129075000Y-104290000D03*
X129075000Y-106830000D03*
X129075000Y-109370000D03*
X129075000Y-111910000D03*
X129075000Y-114450000D03*
X129075000Y-116990000D03*
X129075000Y-119530000D03*
X129075000Y-122070000D03*
X144315000Y-91590000D03*
X144315000Y-94130000D03*
X144315000Y-96670000D03*
X144315000Y-99210000D03*
X144315000Y-101750000D03*
X144315000Y-104290000D03*
X144315000Y-106830000D03*
X144315000Y-109370000D03*
X144315000Y-111910000D03*
X144315000Y-114450000D03*
X144315000Y-116990000D03*
X144315000Y-119530000D03*
D10*
X144315000Y-122070000D03*
%TD*%
M02*
