M48
; DRILL file KiCad 10.0.3 date 2026-06-16T14:38:29
; FORMAT={-:-/ absolute / metric / decimal}
; #@! TF.CreationDate,2026-06-16T14:38:29-05:00
; #@! TF.GenerationSoftware,Kicad,Pcbnew,10.0.3
; #@! TF.FileFunction,Plated,1,2,PTH
FMAT,2
METRIC
; #@! TA.AperFunction,Plated,PTH,ComponentDrill
T1C0.750
; #@! TA.AperFunction,Plated,PTH,ComponentDrill
T2C0.800
; #@! TA.AperFunction,Plated,PTH,ComponentDrill
T3C1.000
; #@! TA.AperFunction,Plated,PTH,ComponentDrill
T4C1.190
%
G90
G05
T1
X177.5Y-96.05
X179.5Y-96.05
X181.5Y-96.05
T2
X118.847Y-71.0
X122.347Y-71.0
T3
X129.075Y-91.59
X129.075Y-94.13
X129.075Y-96.67
X129.075Y-99.21
X129.075Y-101.75
X129.075Y-104.29
X129.075Y-106.83
X129.075Y-109.37
X129.075Y-111.91
X129.075Y-114.45
X129.075Y-116.99
X129.075Y-119.53
X129.075Y-122.07
X144.315Y-91.59
X144.315Y-94.13
X144.315Y-96.67
X144.315Y-99.21
X144.315Y-101.75
X144.315Y-104.29
X144.315Y-106.83
X144.315Y-109.37
X144.315Y-111.91
X144.315Y-114.45
X144.315Y-116.99
X144.315Y-119.53
X144.315Y-122.07
X165.5Y-114.38
X165.5Y-116.92
X165.5Y-119.46
X165.5Y-122.0
X177.93Y-71.03
X180.47Y-71.03
T4
X134.81Y-71.0
X164.19Y-71.0
M30
